<svg id="Ebene_1" data-name="Ebene 1" xmlns="http://www.w3.org/2000/svg" xmlns:xlink="http://www.w3.org/1999/xlink" viewBox="0 0 760 635"><defs><style>.cls-1,.cls-4{fill:none;}.cls-2{clip-path:url(#clip-path);}.cls-3{fill:#fff;}.cls-3,.cls-4{stroke:#000;stroke-miterlimit:10;}.cls-5{font-size:36px;}.cls-10,.cls-12,.cls-13,.cls-5,.cls-8{font-family:ArialRoundedMTBold, Arial Rounded MT Bold;}.cls-6{letter-spacing:-0.04em;}.cls-7{letter-spacing:-0.02em;}.cls-8{font-size:17px;}.cls-9{letter-spacing:-0.01em;}.cls-10,.cls-12,.cls-13{font-size:14px;}.cls-10{fill:#39b54a;}.cls-11{letter-spacing:-0.06em;}.cls-12{fill:#f7931e;}.cls-13{fill:#f75f1e;}.cls-14{letter-spacing:0.01em;}</style><clipPath id="clip-path"><rect class="cls-1" x="27.5" y="12.5" width="700" height="600" rx="25"/></clipPath></defs><g class="cls-2"><rect class="cls-3" x="27.5" y="62.85" width="700" height="50"/><rect class="cls-3" x="27.5" y="112.5" width="700" height="100"/><rect class="cls-3" x="27.5" y="212.5" width="700" height="100"/><rect class="cls-3" x="27.5" y="312.5" width="700" height="100"/><rect class="cls-3" x="27.5" y="412.5" width="700" height="100"/><rect class="cls-3" x="27.5" y="512.5" width="700" height="100"/><rect class="cls-4" x="27.5" y="12.5" width="100" height="600"/><rect class="cls-4" x="127.5" y="12.5" width="100" height="600"/><rect class="cls-4" x="227.5" y="12.5" width="100" height="600"/><rect class="cls-4" x="327.5" y="12.5" width="100" height="600"/><rect class="cls-4" x="427.5" y="12.5" width="100" height="600"/><rect class="cls-4" x="527.5" y="12.5" width="100" height="600"/><rect class="cls-4" x="627.5" y="12.5" width="100" height="600"/><rect class="cls-3" x="27.5" y="12.5" width="700" height="50"/><text class="cls-5" transform="translate(299.1 49.26)"><tspan class="cls-6">K</tspan><tspan x="25.28" y="0">u</tspan><tspan class="cls-7" x="47.02" y="0">r</tspan><tspan x="61.89" y="0">splan</tspan></text><text class="cls-8" transform="translate(329.1 93.4)">Donne<tspan class="cls-7" x="53.49" y="0">r</tspan><tspan x="60.51" y="0">st</tspan><tspan class="cls-9" x="75.74" y="0">a</tspan><tspan x="85.62" y="0">g</tspan></text><text class="cls-8" transform="translate(446.1 93.4)"><tspan class="cls-6">F</tspan><tspan class="cls-7" x="9.62" y="0">r</tspan><tspan x="16.64" y="0">eit</tspan><tspan class="cls-9" x="37.37" y="0">a</tspan><tspan x="47.25" y="0">g</tspan></text><text class="cls-8" transform="translate(541.1 93.4)">Samst<tspan class="cls-9" x="51.71" y="0">a</tspan><tspan x="61.59" y="0">g</tspan></text><text class="cls-8" transform="translate(642.1 93.4)">Sonnt<tspan class="cls-9" x="48.16" y="0">a</tspan><tspan x="58.04" y="0">g</tspan></text><text class="cls-8" transform="translate(239.1 93.4)">Mitt<tspan class="cls-9" x="30.8" y="0">w</tspan><tspan x="44.4" y="0">o</tspan><tspan class="cls-7" x="54.67" y="0">c</tspan><tspan x="64.35" y="0">h</tspan></text><text class="cls-8" transform="translate(138.1 93.4)">Dienst<tspan class="cls-9" x="52.79" y="0">a</tspan><tspan x="62.67" y="0">g</tspan></text><text class="cls-8" transform="translate(45.1 93.4)">Mont<tspan class="cls-9" x="40.72" y="0">a</tspan><tspan x="50.59" y="0">g</tspan></text><text class="cls-10" transform="translate(48.37 150.27)">7:00 Uhr<tspan x="-17.09" y="16.8">Morning </tspan><tspan class="cls-11" x="42.11" y="16.8">Y</tspan><tspan x="49.98" y="16.8">o</tspan><tspan class="cls-7" x="58.44" y="16.8">g</tspan><tspan x="66.84" y="16.8">a</tspan><tspan x="7.08" y="33.6">Online</tspan></text><text class="cls-10" transform="translate(148.37 150.27)">7:00 Uhr<tspan x="-17.09" y="16.8">Morning </tspan><tspan class="cls-11" x="42.11" y="16.8">Y</tspan><tspan x="49.98" y="16.8">o</tspan><tspan class="cls-7" x="58.44" y="16.8">g</tspan><tspan x="66.84" y="16.8">a</tspan><tspan x="7.08" y="33.6">Online</tspan></text><text class="cls-10" transform="translate(348.37 150.27)">7:00 Uhr<tspan x="-17.09" y="16.8">Morning </tspan><tspan class="cls-11" x="42.11" y="16.8">Y</tspan><tspan x="49.98" y="16.8">o</tspan><tspan class="cls-7" x="58.44" y="16.8">g</tspan><tspan x="66.84" y="16.8">a</tspan><tspan x="7.08" y="33.6">Online</tspan></text><text class="cls-10" transform="translate(244.21 443.27)">18:00 Uhr<tspan class="cls-9" x="4.34" y="16.8">Y</tspan><tspan x="12.9" y="16.8">in </tspan><tspan class="cls-11" x="28.65" y="16.8">Y</tspan><tspan x="36.52" y="16.8">ang</tspan><tspan class="cls-11" x="16.67" y="33.6">Y</tspan><tspan x="24.54" y="33.6">o</tspan><tspan class="cls-7" x="32.99" y="33.6">g</tspan><tspan x="41.4" y="33.6">a</tspan><tspan x="11.24" y="50.4">Online</tspan></text><text class="cls-10" transform="translate(244.21 551.27)">20:00 Uhr<tspan x="-11.71" y="16.8">Entspan</tspan><tspan class="cls-9" x="44.16" y="16.8">n</tspan><tspan x="52.43" y="16.8">ung</tspan><tspan x="11.24" y="33.6">Online</tspan></text><text class="cls-10" transform="translate(644.21 551.27)">20:00 Uhr<tspan x="-11.71" y="16.8">Entspan</tspan><tspan class="cls-9" x="44.16" y="16.8">n</tspan><tspan x="52.43" y="16.8">ung</tspan><tspan x="11.24" y="33.6">Online</tspan></text><text class="cls-10" transform="translate(444.21 443.27)">18:00 Uhr<tspan class="cls-9" x="4.34" y="16.8">Y</tspan><tspan x="12.9" y="16.8">in </tspan><tspan class="cls-11" x="28.65" y="16.8">Y</tspan><tspan x="36.52" y="16.8">ang</tspan><tspan class="cls-11" x="16.67" y="33.6">Y</tspan><tspan x="24.54" y="33.6">o</tspan><tspan class="cls-7" x="32.99" y="33.6">g</tspan><tspan x="41.4" y="33.6">a</tspan><tspan x="11.24" y="50.4">Online</tspan></text><text class="cls-10" transform="translate(548.37 150.27)">8:30 Uhr<tspan x="-17.09" y="16.8">Morning </tspan><tspan class="cls-11" x="42.11" y="16.8">Y</tspan><tspan x="49.98" y="16.8">o</tspan><tspan class="cls-7" x="58.44" y="16.8">g</tspan><tspan x="66.84" y="16.8">a</tspan><tspan x="7.08" y="33.6">Online</tspan></text><text class="cls-12" transform="translate(544.21 245.27)">10:00 Uhr<tspan x="2.14" y="16.8">B</tspan><tspan class="cls-9" x="12.21" y="16.8">e</tspan><tspan x="20.34" y="16.8">ginner</tspan><tspan class="cls-11" x="16.67" y="33.6">Y</tspan><tspan x="24.54" y="33.6">o</tspan><tspan class="cls-7" x="32.99" y="33.6">g</tspan><tspan x="41.4" y="33.6">a</tspan><tspan x="11.32" y="50.4">Studio</tspan></text><text class="cls-12" transform="translate(44.21 443.27)">18:00 Uhr<tspan x="2.14" y="16.8">B</tspan><tspan class="cls-9" x="12.21" y="16.8">e</tspan><tspan x="20.34" y="16.8">ginner</tspan><tspan class="cls-11" x="16.67" y="33.6">Y</tspan><tspan x="24.54" y="33.6">o</tspan><tspan class="cls-7" x="32.99" y="33.6">g</tspan><tspan x="41.4" y="33.6">a</tspan><tspan x="11.32" y="50.4">Studio</tspan></text><text class="cls-13" transform="translate(544.21 344.27)">12:00 Uhr<tspan x="10.71" y="16.8">Expe</tspan><tspan class="cls-14" x="44.41" y="16.8">r</tspan><tspan x="50.72" y="16.8">t</tspan><tspan class="cls-11" x="16.67" y="33.6">Y</tspan><tspan x="24.54" y="33.6">o</tspan><tspan class="cls-7" x="32.99" y="33.6">g</tspan><tspan x="41.4" y="33.6">a</tspan><tspan x="11.32" y="50.4">Studio</tspan></text><text class="cls-13" transform="translate(248.37 245.27)">9:00 Uhr<tspan x="6.55" y="16.8">Expe</tspan><tspan class="cls-14" x="40.25" y="16.8">r</tspan><tspan x="46.56" y="16.8">t</tspan><tspan class="cls-11" x="12.51" y="33.6">Y</tspan><tspan x="20.38" y="33.6">o</tspan><tspan class="cls-7" x="28.83" y="33.6">g</tspan><tspan x="37.24" y="33.6">a</tspan><tspan x="7.16" y="50.4">Studio</tspan></text><text class="cls-13" transform="translate(48.37 245.27)">9:00 Uhr<tspan x="6.55" y="16.8">Expe</tspan><tspan class="cls-14" x="40.25" y="16.8">r</tspan><tspan x="46.56" y="16.8">t</tspan><tspan class="cls-11" x="12.51" y="33.6">Y</tspan><tspan x="20.38" y="33.6">o</tspan><tspan class="cls-7" x="28.83" y="33.6">g</tspan><tspan x="37.24" y="33.6">a</tspan><tspan x="7.16" y="50.4">Studio</tspan></text><text class="cls-12" transform="translate(544.21 443.27)">17:00 Uhr<tspan class="cls-9" x="6.53" y="16.8">V</tspan><tspan x="15.98" y="16.8">in</tspan><tspan class="cls-9" x="28.23" y="16.8">y</tspan><tspan x="35.63" y="16.8">asa</tspan><tspan class="cls-11" x="16.67" y="33.6">Y</tspan><tspan x="24.54" y="33.6">o</tspan><tspan class="cls-7" x="32.99" y="33.6">g</tspan><tspan x="41.4" y="33.6">a</tspan><tspan x="11.32" y="50.4">Studio</tspan></text><text class="cls-12" transform="translate(344.21 443.27)">18:00 Uhr<tspan class="cls-9" x="6.53" y="16.8">V</tspan><tspan x="15.98" y="16.8">in</tspan><tspan class="cls-9" x="28.23" y="16.8">y</tspan><tspan x="35.63" y="16.8">asa</tspan><tspan class="cls-11" x="16.67" y="33.6">Y</tspan><tspan x="24.54" y="33.6">o</tspan><tspan class="cls-7" x="32.99" y="33.6">g</tspan><tspan x="41.4" y="33.6">a</tspan><tspan x="11.32" y="50.4">Studio</tspan></text><text class="cls-12" transform="translate(144.21 443.27)">18:00 Uhr<tspan class="cls-9" x="6.53" y="16.8">V</tspan><tspan x="15.98" y="16.8">in</tspan><tspan class="cls-9" x="28.23" y="16.8">y</tspan><tspan x="35.63" y="16.8">asa</tspan><tspan class="cls-11" x="16.67" y="33.6">Y</tspan><tspan x="24.54" y="33.6">o</tspan><tspan class="cls-7" x="32.99" y="33.6">g</tspan><tspan x="41.4" y="33.6">a</tspan><tspan x="11.32" y="50.4">Studio</tspan></text><rect class="cls-4" x="27.5" y="12.5" width="700" height="600" rx="25"/></g></svg>