<svg xmlns="http://www.w3.org/2000/svg" xmlns:xlink="http://www.w3.org/1999/xlink" width="621.492" height="1160.665" viewBox="0 0 621.492 1160.665">
  <defs>
    <filter id="Ellipse_10" x="482.781" y="597.996" width="123" height="123" filterUnits="userSpaceOnUse">
      <feOffset dy="3" input="SourceAlpha"/>
      <feGaussianBlur stdDeviation="3" result="blur"/>
      <feFlood flood-opacity="0"/>
      <feComposite operator="in" in2="blur"/>
      <feComposite in="SourceGraphic"/>
    </filter>
    <filter id="Pfad_17" x="465.836" y="580.418" width="155.656" height="161.178" filterUnits="userSpaceOnUse">
      <feOffset dy="3" input="SourceAlpha"/>
      <feGaussianBlur stdDeviation="3" result="blur-2"/>
      <feFlood flood-opacity="0"/>
      <feComposite operator="in" in2="blur-2"/>
      <feComposite in="SourceGraphic"/>
    </filter>
    <filter id="Pfad_18" x="489.729" y="597.158" width="109.103" height="98.328" filterUnits="userSpaceOnUse">
      <feOffset dy="3" input="SourceAlpha"/>
      <feGaussianBlur stdDeviation="3" result="blur-3"/>
      <feFlood flood-opacity="0"/>
      <feComposite operator="in" in2="blur-3"/>
      <feComposite in="SourceGraphic"/>
    </filter>
    <filter id="Pfad_19" x="489.729" y="623.726" width="109.103" height="98.328" filterUnits="userSpaceOnUse">
      <feOffset dy="3" input="SourceAlpha"/>
      <feGaussianBlur stdDeviation="3" result="blur-4"/>
      <feFlood flood-opacity="0"/>
      <feComposite operator="in" in2="blur-4"/>
      <feComposite in="SourceGraphic"/>
    </filter>
    <filter id="Pfad_16" x="456.443" y="356.05" width="157.439" height="160.479" filterUnits="userSpaceOnUse">
      <feOffset dy="3" input="SourceAlpha"/>
      <feGaussianBlur stdDeviation="3" result="blur-5"/>
      <feFlood flood-opacity="0"/>
      <feComposite operator="in" in2="blur-5"/>
      <feComposite in="SourceGraphic"/>
    </filter>
    <filter id="Ellipse_8" x="473.38" y="373.896" width="123" height="123" filterUnits="userSpaceOnUse">
      <feOffset dy="3" input="SourceAlpha"/>
      <feGaussianBlur stdDeviation="3" result="blur-6"/>
      <feFlood flood-opacity="0"/>
      <feComposite operator="in" in2="blur-6"/>
      <feComposite in="SourceGraphic"/>
    </filter>
    <filter id="Pfad_15" x="480.329" y="399.756" width="109.103" height="98.328" filterUnits="userSpaceOnUse">
      <feOffset dy="3" input="SourceAlpha"/>
      <feGaussianBlur stdDeviation="3" result="blur-7"/>
      <feFlood flood-opacity="0"/>
      <feComposite operator="in" in2="blur-7"/>
      <feComposite in="SourceGraphic"/>
    </filter>
    <filter id="Ellipse_9" x="499.971" y="399.756" width="69.82" height="69.82" filterUnits="userSpaceOnUse">
      <feOffset dy="3" input="SourceAlpha"/>
      <feGaussianBlur stdDeviation="3" result="blur-8"/>
      <feFlood flood-opacity="0"/>
      <feComposite operator="in" in2="blur-8"/>
      <feComposite in="SourceGraphic"/>
    </filter>
    <filter id="Ellipse_11" x="231.171" y="962.406" width="123" height="123" filterUnits="userSpaceOnUse">
      <feOffset dy="3" input="SourceAlpha"/>
      <feGaussianBlur stdDeviation="3" result="blur-9"/>
      <feFlood flood-opacity="0"/>
      <feComposite operator="in" in2="blur-9"/>
      <feComposite in="SourceGraphic"/>
    </filter>
    <filter id="Ellipse_12" x="241.57" y="972.806" width="102.2" height="102.2" filterUnits="userSpaceOnUse">
      <feOffset dy="3" input="SourceAlpha"/>
      <feGaussianBlur stdDeviation="3" result="blur-10"/>
      <feFlood flood-opacity="0"/>
      <feComposite operator="in" in2="blur-10"/>
      <feComposite in="SourceGraphic"/>
    </filter>
    <filter id="Ellipse_13" x="246.75" y="972.806" width="91.84" height="91.84" filterUnits="userSpaceOnUse">
      <feOffset dy="3" input="SourceAlpha"/>
      <feGaussianBlur stdDeviation="3" result="blur-11"/>
      <feFlood flood-opacity="0"/>
      <feComposite operator="in" in2="blur-11"/>
      <feComposite in="SourceGraphic"/>
    </filter>
    <filter id="Ellipse_14" x="252.931" y="972.066" width="79.48" height="79.48" filterUnits="userSpaceOnUse">
      <feOffset dy="3" input="SourceAlpha"/>
      <feGaussianBlur stdDeviation="3" result="blur-12"/>
      <feFlood flood-opacity="0"/>
      <feComposite operator="in" in2="blur-12"/>
      <feComposite in="SourceGraphic"/>
    </filter>
    <filter id="Pfad_20" x="281.564" y="1035.787" width="69.808" height="67.738" filterUnits="userSpaceOnUse">
      <feOffset dy="3" input="SourceAlpha"/>
      <feGaussianBlur stdDeviation="3" result="blur-13"/>
      <feFlood flood-opacity="0"/>
      <feComposite operator="in" in2="blur-13"/>
      <feComposite in="SourceGraphic"/>
    </filter>
    <filter id="Pfad_21" x="233.979" y="1035.787" width="69.799" height="67.738" filterUnits="userSpaceOnUse">
      <feOffset dy="3" input="SourceAlpha"/>
      <feGaussianBlur stdDeviation="3" result="blur-14"/>
      <feFlood flood-opacity="0"/>
      <feComposite operator="in" in2="blur-14"/>
      <feComposite in="SourceGraphic"/>
    </filter>
    <filter id="Pfad_22" x="328.276" y="989.464" width="54.634" height="70.61" filterUnits="userSpaceOnUse">
      <feOffset dy="3" input="SourceAlpha"/>
      <feGaussianBlur stdDeviation="3" result="blur-15"/>
      <feFlood flood-opacity="0"/>
      <feComposite operator="in" in2="blur-15"/>
      <feComposite in="SourceGraphic"/>
    </filter>
    <filter id="Pfad_23" x="281.385" y="943.481" width="69.987" height="67.725" filterUnits="userSpaceOnUse">
      <feOffset dy="3" input="SourceAlpha"/>
      <feGaussianBlur stdDeviation="3" result="blur-16"/>
      <feFlood flood-opacity="0"/>
      <feComposite operator="in" in2="blur-16"/>
      <feComposite in="SourceGraphic"/>
    </filter>
    <filter id="Pfad_24" x="233.979" y="943.481" width="69.978" height="67.725" filterUnits="userSpaceOnUse">
      <feOffset dy="3" input="SourceAlpha"/>
      <feGaussianBlur stdDeviation="3" result="blur-17"/>
      <feFlood flood-opacity="0"/>
      <feComposite operator="in" in2="blur-17"/>
      <feComposite in="SourceGraphic"/>
    </filter>
    <filter id="Pfad_25" x="204.13" y="988.603" width="54.595" height="70.612" filterUnits="userSpaceOnUse">
      <feOffset dy="3" input="SourceAlpha"/>
      <feGaussianBlur stdDeviation="3" result="blur-18"/>
      <feFlood flood-opacity="0"/>
      <feComposite operator="in" in2="blur-18"/>
      <feComposite in="SourceGraphic"/>
    </filter>
    <filter id="Pfad_27" x="370" y="791.796" width="161.42" height="160.792" filterUnits="userSpaceOnUse">
      <feOffset dy="3" input="SourceAlpha"/>
      <feGaussianBlur stdDeviation="3" result="blur-19"/>
      <feFlood flood-opacity="0"/>
      <feComposite operator="in" in2="blur-19"/>
      <feComposite in="SourceGraphic"/>
    </filter>
    <filter id="Ellipse_15" x="388.912" y="810.611" width="123" height="123" filterUnits="userSpaceOnUse">
      <feOffset dy="3" input="SourceAlpha"/>
      <feGaussianBlur stdDeviation="3" result="blur-20"/>
      <feFlood flood-opacity="0"/>
      <feComposite operator="in" in2="blur-20"/>
      <feComposite in="SourceGraphic"/>
    </filter>
    <filter id="Pfad_26" x="395.143" y="836.331" width="109.169" height="96.971" filterUnits="userSpaceOnUse">
      <feOffset dy="3" input="SourceAlpha"/>
      <feGaussianBlur stdDeviation="3" result="blur-21"/>
      <feFlood flood-opacity="0"/>
      <feComposite operator="in" in2="blur-21"/>
      <feComposite in="SourceGraphic"/>
    </filter>
    <filter id="Ellipse_16" x="6.62" y="1027.265" width="123" height="123" filterUnits="userSpaceOnUse">
      <feOffset dy="3" input="SourceAlpha"/>
      <feGaussianBlur stdDeviation="3" result="blur-22"/>
      <feFlood flood-opacity="0"/>
      <feComposite operator="in" in2="blur-22"/>
      <feComposite in="SourceGraphic"/>
    </filter>
    <filter id="Rechteck_37" x="22.91" y="1041.495" width="90.49" height="94.78" filterUnits="userSpaceOnUse">
      <feOffset dy="3" input="SourceAlpha"/>
      <feGaussianBlur stdDeviation="3" result="blur-23"/>
      <feFlood flood-opacity="0"/>
      <feComposite operator="in" in2="blur-23"/>
      <feComposite in="SourceGraphic"/>
    </filter>
    <filter id="Pfad_28" x="36.17" y="1063.065" width="63.911" height="57.761" filterUnits="userSpaceOnUse">
      <feOffset dy="3" input="SourceAlpha"/>
      <feGaussianBlur stdDeviation="3" result="blur-24"/>
      <feFlood flood-opacity="0"/>
      <feComposite operator="in" in2="blur-24"/>
      <feComposite in="SourceGraphic"/>
    </filter>
    <filter id="Pfad_29" x="56.646" y="1077.787" width="79.603" height="82.878" filterUnits="userSpaceOnUse">
      <feOffset dy="3" input="SourceAlpha"/>
      <feGaussianBlur stdDeviation="3" result="blur-25"/>
      <feFlood flood-opacity="0"/>
      <feComposite operator="in" in2="blur-25"/>
      <feComposite in="SourceGraphic"/>
    </filter>
    <filter id="Pfad_30" x="0.005" y="1079.777" width="79.589" height="80.888" filterUnits="userSpaceOnUse">
      <feOffset dy="3" input="SourceAlpha"/>
      <feGaussianBlur stdDeviation="3" result="blur-26"/>
      <feFlood flood-opacity="0"/>
      <feComposite operator="in" in2="blur-26"/>
      <feComposite in="SourceGraphic"/>
    </filter>
    <filter id="Pfad_31" x="0" y="1015.822" width="79.594" height="83.872" filterUnits="userSpaceOnUse">
      <feOffset dy="3" input="SourceAlpha"/>
      <feGaussianBlur stdDeviation="3" result="blur-27"/>
      <feFlood flood-opacity="0"/>
      <feComposite operator="in" in2="blur-27"/>
      <feComposite in="SourceGraphic"/>
    </filter>
    <filter id="Pfad_32" x="58.135" y="1015.822" width="78.991" height="83.874" filterUnits="userSpaceOnUse">
      <feOffset dy="3" input="SourceAlpha"/>
      <feGaussianBlur stdDeviation="3" result="blur-28"/>
      <feFlood flood-opacity="0"/>
      <feComposite operator="in" in2="blur-28"/>
      <feComposite in="SourceGraphic"/>
    </filter>
    <filter id="Pfad_33" x="243.262" y="18.085" width="123.767" height="145.546" filterUnits="userSpaceOnUse">
      <feOffset dy="3" input="SourceAlpha"/>
      <feGaussianBlur stdDeviation="3" result="blur-29"/>
      <feFlood flood-opacity="0"/>
      <feComposite operator="in" in2="blur-29"/>
      <feComposite in="SourceGraphic"/>
    </filter>
    <filter id="Pfad_34" x="301.779" y="112.83" width="51.248" height="49.296" filterUnits="userSpaceOnUse">
      <feOffset dy="3" input="SourceAlpha"/>
      <feGaussianBlur stdDeviation="3" result="blur-30"/>
      <feFlood flood-opacity="0"/>
      <feComposite operator="in" in2="blur-30"/>
      <feComposite in="SourceGraphic"/>
    </filter>
    <filter id="Pfad_35" x="256.824" y="109.656" width="51.079" height="53.884" filterUnits="userSpaceOnUse">
      <feOffset dy="3" input="SourceAlpha"/>
      <feGaussianBlur stdDeviation="3" result="blur-31"/>
      <feFlood flood-opacity="0"/>
      <feComposite operator="in" in2="blur-31"/>
      <feComposite in="SourceGraphic"/>
    </filter>
    <filter id="Pfad_36" x="230.41" y="63.364" width="41.324" height="53.844" filterUnits="userSpaceOnUse">
      <feOffset dy="3" input="SourceAlpha"/>
      <feGaussianBlur stdDeviation="3" result="blur-32"/>
      <feFlood flood-opacity="0"/>
      <feComposite operator="in" in2="blur-32"/>
      <feComposite in="SourceGraphic"/>
    </filter>
    <filter id="Pfad_37" x="259.913" y="21.174" width="49.423" height="45.533" filterUnits="userSpaceOnUse">
      <feOffset dy="3" input="SourceAlpha"/>
      <feGaussianBlur stdDeviation="3" result="blur-33"/>
      <feFlood flood-opacity="0"/>
      <feComposite operator="in" in2="blur-33"/>
      <feComposite in="SourceGraphic"/>
    </filter>
    <filter id="Pfad_38" x="301.029" y="20.791" width="52.181" height="49.657" filterUnits="userSpaceOnUse">
      <feOffset dy="3" input="SourceAlpha"/>
      <feGaussianBlur stdDeviation="3" result="blur-34"/>
      <feFlood flood-opacity="0"/>
      <feComposite operator="in" in2="blur-34"/>
      <feComposite in="SourceGraphic"/>
    </filter>
    <filter id="Pfad_39" x="339.464" y="61.645" width="39.282" height="55.074" filterUnits="userSpaceOnUse">
      <feOffset dy="3" input="SourceAlpha"/>
      <feGaussianBlur stdDeviation="3" result="blur-35"/>
      <feFlood flood-opacity="0"/>
      <feComposite operator="in" in2="blur-35"/>
      <feComposite in="SourceGraphic"/>
    </filter>
    <filter id="Pfad_40" x="327.272" y="32.065" width="53.676" height="64.106" filterUnits="userSpaceOnUse">
      <feOffset dy="3" input="SourceAlpha"/>
      <feGaussianBlur stdDeviation="3" result="blur-36"/>
      <feFlood flood-opacity="0"/>
      <feComposite operator="in" in2="blur-36"/>
      <feComposite in="SourceGraphic"/>
    </filter>
    <filter id="Pfad_41" x="326.788" y="83.943" width="55.892" height="64.489" filterUnits="userSpaceOnUse">
      <feOffset dy="3" input="SourceAlpha"/>
      <feGaussianBlur stdDeviation="3" result="blur-37"/>
      <feFlood flood-opacity="0"/>
      <feComposite operator="in" in2="blur-37"/>
      <feComposite in="SourceGraphic"/>
    </filter>
    <filter id="Pfad_42" x="271.227" y="130.975" width="68.445" height="51.759" filterUnits="userSpaceOnUse">
      <feOffset dy="3" input="SourceAlpha"/>
      <feGaussianBlur stdDeviation="3" result="blur-38"/>
      <feFlood flood-opacity="0"/>
      <feComposite operator="in" in2="blur-38"/>
      <feComposite in="SourceGraphic"/>
    </filter>
    <filter id="Pfad_43" x="226.613" y="83.253" width="58.028" height="66.717" filterUnits="userSpaceOnUse">
      <feOffset dy="3" input="SourceAlpha"/>
      <feGaussianBlur stdDeviation="3" result="blur-39"/>
      <feFlood flood-opacity="0"/>
      <feComposite operator="in" in2="blur-39"/>
      <feComposite in="SourceGraphic"/>
    </filter>
    <filter id="Pfad_44" x="225.723" y="30.222" width="59.796" height="65.244" filterUnits="userSpaceOnUse">
      <feOffset dy="3" input="SourceAlpha"/>
      <feGaussianBlur stdDeviation="3" result="blur-40"/>
      <feFlood flood-opacity="0"/>
      <feComposite operator="in" in2="blur-40"/>
      <feComposite in="SourceGraphic"/>
    </filter>
    <filter id="Pfad_45" x="270.88" y="0" width="67.426" height="49.42" filterUnits="userSpaceOnUse">
      <feOffset dy="3" input="SourceAlpha"/>
      <feGaussianBlur stdDeviation="3" result="blur-41"/>
      <feFlood flood-opacity="0"/>
      <feComposite operator="in" in2="blur-41"/>
      <feComposite in="SourceGraphic"/>
    </filter>
    <filter id="Ellipse_17" x="257.043" y="41.608" width="95.399" height="95.399" filterUnits="userSpaceOnUse">
      <feOffset dy="3" input="SourceAlpha"/>
      <feGaussianBlur stdDeviation="3" result="blur-42"/>
      <feFlood flood-opacity="0"/>
      <feComposite operator="in" in2="blur-42"/>
      <feComposite in="SourceGraphic"/>
    </filter>
    <filter id="Ellipse_18" x="405.051" y="194.826" width="111.26" height="111.26" filterUnits="userSpaceOnUse">
      <feOffset dy="3" input="SourceAlpha"/>
      <feGaussianBlur stdDeviation="3" result="blur-43"/>
      <feFlood flood-opacity="0"/>
      <feComposite operator="in" in2="blur-43"/>
      <feComposite in="SourceGraphic"/>
    </filter>
    <filter id="Pfad_46" x="478.948" y="204.727" width="91.934" height="92.003" filterUnits="userSpaceOnUse">
      <feOffset dy="3" input="SourceAlpha"/>
      <feGaussianBlur stdDeviation="3" result="blur-44"/>
      <feFlood flood-opacity="0"/>
      <feComposite operator="in" in2="blur-44"/>
      <feComposite in="SourceGraphic"/>
    </filter>
    <filter id="Pfad_47" x="351.969" y="205.155" width="91.925" height="92.625" filterUnits="userSpaceOnUse">
      <feOffset dy="3" input="SourceAlpha"/>
      <feGaussianBlur stdDeviation="3" result="blur-45"/>
      <feFlood flood-opacity="0"/>
      <feComposite operator="in" in2="blur-45"/>
      <feComposite in="SourceGraphic"/>
    </filter>
    <filter id="Pfad_48" x="410.979" y="217.786" width="99.403" height="89.778" filterUnits="userSpaceOnUse">
      <feOffset dy="3" input="SourceAlpha"/>
      <feGaussianBlur stdDeviation="3" result="blur-46"/>
      <feFlood flood-opacity="0"/>
      <feComposite operator="in" in2="blur-46"/>
      <feComposite in="SourceGraphic"/>
    </filter>
  </defs>
  <g id="Gruppe_27" data-name="Gruppe 27" transform="translate(-1052.5 -2102.674)">
    <g id="Herzchakra-01" transform="translate(1496.26 2649.12)">
      <g transform="matrix(1, 0, 0, 1, -443.76, -546.45)" filter="url(#Ellipse_10)">
        <circle id="Ellipse_10-2" data-name="Ellipse 10" cx="50" cy="50" r="50" transform="translate(494.28 606.5)" fill="none" stroke="#77bc3b" stroke-miterlimit="10" stroke-width="5"/>
      </g>
      <g transform="matrix(1, 0, 0, 1, -443.76, -546.45)" filter="url(#Pfad_17)">
        <path id="Pfad_17-2" data-name="Pfad 17" d="M113.85,59.27,101.46,43.88,88.37,59.1,66.64,51.57,65.55,73.52l-23.7,2.47,8.93,19L34.74,111.33,50.6,124.82l-7.47,22.61H65.18L67.37,171l17.78-11.9L100,178.98l13.85-18.44,19.33,11.21,2.55-25.08,22.42-.19-8.56-17.94,15.67-17.12L149.59,95.99l8.01-19.62-21.32-1.71-2.56-23.57Z" transform="translate(443.76 546.45)" fill="none" stroke="#77bc3b" stroke-miterlimit="10" stroke-width="5"/>
      </g>
      <g transform="matrix(1, 0, 0, 1, -443.76, -546.45)" filter="url(#Pfad_18)">
        <path id="Pfad_18-2" data-name="Pfad 18" d="M100.52,134.54h41.26L121.15,98.16,100.52,61.78,79.89,98.16,59.26,134.54Z" transform="translate(443.76 546.45)" fill="none" stroke="#77bc3b" stroke-miterlimit="10" stroke-width="5"/>
      </g>
      <g transform="matrix(1, 0, 0, 1, -443.76, -546.45)" filter="url(#Pfad_19)">
        <path id="Pfad_19-2" data-name="Pfad 19" d="M100.52,85.78h41.26l-20.63,36.38-20.63,36.38L79.89,122.16,59.26,85.78Z" transform="translate(443.76 546.45)" fill="none" stroke="#77bc3b" stroke-miterlimit="10" stroke-width="5"/>
      </g>
    </g>
    <g id="Halschakra-01" transform="translate(1487.54 2435.81)">
      <g transform="matrix(1, 0, 0, 1, -435.04, -333.14)" filter="url(#Pfad_16)">
        <path id="Pfad_16-2" data-name="Pfad 16" d="M111.17,48.51,100.75,33.19,89.08,48.51l-14.4-11.3L71.45,56.8,52.83,52.78l3.72,18.84L38.18,74.38,48.61,89.2,34.46,99.75l14.4,11.8L37.44,126.62l20.11,2.51-5.47,18.34,19.5-4.15,2.6,20.48,13.88-13.57,11.69,16.58,9.78-16.35,15.05,12.33,3.19-18.93,17.91,3.36-3.05-17.76,17.95-1.58L150.43,111.5l15.11-9.99L150.28,89.78l12.28-14.9-18.37-3.26,2.73-18.34L129.05,57.8l-3.48-20.84Z" transform="translate(435.04 333.14)" fill="none" stroke="#00bee9" stroke-miterlimit="10" stroke-width="5"/>
      </g>
      <g transform="matrix(1, 0, 0, 1, -435.04, -333.14)" filter="url(#Ellipse_8)">
        <circle id="Ellipse_8-2" data-name="Ellipse 8" cx="50" cy="50" r="50" transform="translate(484.88 382.4)" fill="none" stroke="#00bee9" stroke-miterlimit="10" stroke-width="5"/>
      </g>
      <g transform="matrix(1, 0, 0, 1, -435.04, -333.14)" filter="url(#Pfad_15)">
        <path id="Pfad_15-2" data-name="Pfad 15" d="M99.84,75.12H141.1L120.47,111.5,99.84,147.88,79.21,111.5,58.58,75.12Z" transform="translate(435.04 333.14)" fill="none" stroke="#00bee9" stroke-miterlimit="10" stroke-width="5"/>
      </g>
      <g transform="matrix(1, 0, 0, 1, -435.04, -333.14)" filter="url(#Ellipse_9)">
        <circle id="Ellipse_9-2" data-name="Ellipse 9" cx="23.41" cy="23.41" r="23.41" transform="translate(511.47 408.26)" fill="none" stroke="#00bee9" stroke-miterlimit="10" stroke-width="5"/>
      </g>
    </g>
    <g id="Sakralchakra-01" transform="translate(1246 3017.25)">
      <g transform="matrix(1, 0, 0, 1, -193.5, -914.58)" filter="url(#Ellipse_11)">
        <circle id="Ellipse_11-2" data-name="Ellipse 11" cx="50" cy="50" r="50" transform="translate(242.67 970.91)" fill="none" stroke="#ff8e15" stroke-miterlimit="10" stroke-width="5"/>
      </g>
      <g transform="matrix(1, 0, 0, 1, -193.5, -914.58)" filter="url(#Ellipse_12)">
        <circle id="Ellipse_12-2" data-name="Ellipse 12" cx="39.6" cy="39.6" r="39.6" transform="translate(253.07 981.31)" fill="none" stroke="#ff8e15" stroke-miterlimit="10" stroke-width="5"/>
      </g>
      <g transform="matrix(1, 0, 0, 1, -193.5, -914.58)" filter="url(#Ellipse_13)">
        <circle id="Ellipse_13-2" data-name="Ellipse 13" cx="34.42" cy="34.42" r="34.42" transform="translate(258.25 981.31)" fill="none" stroke="#ff8e15" stroke-miterlimit="10" stroke-width="5"/>
      </g>
      <g transform="matrix(1, 0, 0, 1, -193.5, -914.58)" filter="url(#Ellipse_14)">
        <circle id="Ellipse_14-2" data-name="Ellipse 14" cx="28.24" cy="28.24" r="28.24" transform="translate(264.43 980.57)" fill="none" stroke="#ff8e15" stroke-miterlimit="10" stroke-width="5"/>
      </g>
      <g transform="matrix(1, 0, 0, 1, -193.5, -914.58)" filter="url(#Pfad_20)">
        <path id="Pfad_20-2" data-name="Pfad 20" d="M99.17,157.37a15.19,15.19,0,0,0,12.28,7c8.47.3,13.73-2.63,25.72,6.73,0,0-2.34-15.2,6.72-25.14,0,0,5.55-7.59,0-17.53" transform="translate(193.5 914.58)" fill="none" stroke="#ff8e15" stroke-miterlimit="10" stroke-width="5"/>
      </g>
      <g transform="matrix(1, 0, 0, 1, -193.5, -914.58)" filter="url(#Pfad_21)">
        <path id="Pfad_21-2" data-name="Pfad 21" d="M99.17,157.37a15.16,15.16,0,0,1-12.27,7c-8.47.3-13.73-2.63-25.72,6.73,0,0,2.34-15.2-6.72-25.14,0,0-5.55-7.59,0-17.53" transform="translate(193.5 914.58)" fill="none" stroke="#ff8e15" stroke-miterlimit="10" stroke-width="5"/>
      </g>
      <g transform="matrix(1, 0, 0, 1, -193.5, -914.58)" filter="url(#Pfad_22)">
        <path id="Pfad_22-2" data-name="Pfad 22" d="M143.86,131a15.2,15.2,0,0,0,12.29-7c4.56-7.14,4.73-13.16,18.88-18.71,0,0-14-9.31-17.48-15.1-4.23-6.95-13.66-6.8-13.66-6.8" transform="translate(193.5 914.58)" fill="none" stroke="#ff8e15" stroke-miterlimit="10" stroke-width="5"/>
      </g>
      <g transform="matrix(1, 0, 0, 1, -193.5, -914.58)" filter="url(#Pfad_23)">
        <path id="Pfad_23-2" data-name="Pfad 23" d="M99.17,56.33s3.8-8.57,12.28-8.86,13.73,2.63,25.72-6.72c0,0-2.34,15.19,6.72,25.13,0,0,5.55,7.6,0,17.53" transform="translate(193.5 914.58)" fill="none" stroke="#ff8e15" stroke-miterlimit="10" stroke-width="5"/>
      </g>
      <g transform="matrix(1, 0, 0, 1, -193.5, -914.58)" filter="url(#Pfad_24)">
        <path id="Pfad_24-2" data-name="Pfad 24" d="M99.17,56.33s-3.79-8.57-12.27-8.86S73.17,50.1,61.18,40.75c0,0,2.34,15.19-6.72,25.13,0,0-5.55,7.6,0,17.53" transform="translate(193.5 914.58)" fill="none" stroke="#ff8e15" stroke-miterlimit="10" stroke-width="5"/>
      </g>
      <g transform="matrix(1, 0, 0, 1, -193.5, -914.58)" filter="url(#Pfad_25)">
        <path id="Pfad_25-2" data-name="Pfad 25" d="M56.14,130.14a15.2,15.2,0,0,1-12.29-7C39.29,116,39.12,110,25,104.43c0,0,14-9.31,17.48-15.1,4.23-7,13.66-6.8,13.66-6.8" transform="translate(193.5 914.58)" fill="none" stroke="#ff8e15" stroke-miterlimit="10" stroke-width="5"/>
      </g>
    </g>
    <g id="Solarchakra-01" transform="translate(1403.242 2861.115)">
      <g transform="matrix(1, 0, 0, 1, -350.74, -758.44)" filter="url(#Pfad_27)">
        <path id="Pfad_27-2" data-name="Pfad 27" d="M99,162.34S115.68,173,120.48,178.4a1.6,1.6,0,0,0,2.79-.81c.71-4.51,8-19.33,6.16-24.32a.35.35,0,0,1,.42-.47,50.31,50.31,0,0,0,24.52,1.66c2-.36,2.47-2.39,2-4.37-.47-2.19-7.48-21.78-8.55-22s19.95-13.45,20.68-14.5c.95-1.37,1-3.09-.5-3.75-2.39-1-18.46-14.82-18.46-14.82s7.58-22.42,8.08-24.14a2,2,0,0,0-2.07-2.48c-4.37.42-22.15-.2-24.42.69a.85.85,0,0,1-1.17-.79c0-2.79-6.94-19.71-7.4-22a2.41,2.41,0,0,0-3.83-1.44C116.31,46.68,100,58.07,101.3,59.13S81.58,44.49,78.48,42c-2.73-2.18-9.86,27.2-8.54,27.46s-25.31-.17-27.87-.26c-.77,0-1.36.55-1,1.2,2.06,3.41,8.56,25,8.56,25S38,104.1,31.87,109.09a3,3,0,0,0,.1,4.74c5.21,3.86,19.07,10.07,17.7,11.85,0,0-2.57,16.56-5.5,24a2.25,2.25,0,0,0,2.1,3.06c6.28,0,18.21.21,25.57,1.93,0,0,5.22,21.19,6.25,23,.9,1.59,2.36,2.63,3.67,1.37C86.65,174.35,93.62,166.35,99,162.34Z" transform="translate(350.74 758.44)" fill="none" stroke="#fff600" stroke-miterlimit="10" stroke-width="5"/>
      </g>
      <g transform="matrix(1, 0, 0, 1, -350.74, -758.44)" filter="url(#Ellipse_15)">
        <circle id="Ellipse_15-2" data-name="Ellipse 15" cx="50" cy="50" r="50" transform="translate(400.41 819.11)" fill="none" stroke="#fff600" stroke-miterlimit="10" stroke-width="5"/>
      </g>
      <g transform="matrix(1, 0, 0, 1, -350.74, -758.44)" filter="url(#Pfad_26)">
        <path id="Pfad_26-2" data-name="Pfad 26" d="M98.98,86.39h41.26l-20.63,35.74L98.98,157.86,78.36,122.13,57.73,86.39Z" transform="translate(350.74 758.44)" fill="none" stroke="#fff600" stroke-miterlimit="10" stroke-width="5"/>
      </g>
    </g>
    <g id="Wurzelchakra-01" transform="translate(1021.049 3081.129)">
      <g transform="matrix(1, 0, 0, 1, 31.45, -978.45)" filter="url(#Ellipse_16)">
        <circle id="Ellipse_16-2" data-name="Ellipse 16" cx="50" cy="50" r="50" transform="translate(18.12 1035.76)" fill="none" stroke="#ff1543" stroke-miterlimit="10" stroke-width="5"/>
      </g>
      <g transform="matrix(1, 0, 0, 1, 31.45, -978.45)" filter="url(#Rechteck_37)">
        <rect id="Rechteck_37-2" data-name="Rechteck 37" width="67.49" height="71.78" transform="translate(34.41 1049.99)" fill="none" stroke="#ff1543" stroke-miterlimit="10" stroke-width="5"/>
      </g>
      <g transform="matrix(1, 0, 0, 1, 31.45, -978.45)" filter="url(#Pfad_28)">
        <path id="Pfad_28-2" data-name="Pfad 28" d="M99.57,93.11H118.2l-9.32,16.13-9.31,16.13-9.31-16.13L80.95,93.11Z" transform="translate(-31.45 978.45)" fill="none" stroke="#ff1543" stroke-miterlimit="10" stroke-width="5"/>
      </g>
      <g transform="matrix(1, 0, 0, 1, 31.45, -978.45)" filter="url(#Pfad_29)">
        <path id="Pfad_29-2" data-name="Pfad 29" d="M99.57,157.31s1.71,11.78,19.17,10.26,19.55-8.54,34.74-2.09c0,0-5.89-18.22,1.52-37.2,0,0,5-12.61-5.43-21" transform="translate(-31.45 978.45)" fill="none" stroke="#ff1543" stroke-miterlimit="10" stroke-width="5"/>
      </g>
      <g transform="matrix(1, 0, 0, 1, 31.45, -978.45)" filter="url(#Pfad_30)">
        <path id="Pfad_30-2" data-name="Pfad 30" d="M99.57,157.31s-1.71,11.78-19.17,10.26S60.85,159,45.67,165.48c0,0,5.88-18.22-1.52-37.2,0,0-5-10.69,5.46-19" transform="translate(-31.45 978.45)" fill="none" stroke="#ff1543" stroke-miterlimit="10" stroke-width="5"/>
      </g>
      <g transform="matrix(1, 0, 0, 1, 31.45, -978.45)" filter="url(#Pfad_31)">
        <path id="Pfad_31-2" data-name="Pfad 31" d="M99.57,56.3S97.86,44.52,80.4,46s-19.55,8.54-34.73,2.09c0,0,5.88,18.22-1.52,37.2,0,0-5,13.63,5.42,22" transform="translate(-31.45 978.45)" fill="none" stroke="#ff1543" stroke-miterlimit="10" stroke-width="5"/>
      </g>
      <g transform="matrix(1, 0, 0, 1, 31.45, -978.45)" filter="url(#Pfad_32)">
        <path id="Pfad_32-2" data-name="Pfad 32" d="M101.06,56.3s1.71-11.78,19.17-10.3,19.55,8.54,34.73,2.09c0,0-5.88,18.22,1.52,37.2,0,0,3.53,13.63-6.91,22" transform="translate(-31.45 978.45)" fill="none" stroke="#ff1543" stroke-miterlimit="10" stroke-width="5"/>
      </g>
    </g>
    <g id="Sahasrara" transform="translate(1246.72 2074.285)">
      <g transform="matrix(1, 0, 0, 1, -194.22, 28.39)" filter="url(#Pfad_33)">
        <path id="Pfad_33-2" data-name="Pfad 33" d="M127.735,78.692S126.541,69.066,122,68.421c-5.589-.812-11.334-5.183-12.636-10.88-.669-2.914-.932-5.972-1.194-4.777-1.373,6.557-.107,8.742-7.3,13.352-7.93,5.088-9.447,5.482-10.2,12.528,0,0-8.695-3-14.618,0s-10.462,7.441-16.123,5.219c0,0,3.655,8.886,4.156,14.236.466,4.98,2.46,13.137,5.972,14.332a.537.537,0,0,1,.227.848c-1.72,2.114-6.664,8.575-6.354,12.361.382,4.562-4.025,16.84-4.025,16.84s8.814-1.433,15.12,2.484,15.12,0,15.12,0,2.52,12.266,8.062,14.618S108.96,171.86,108.96,171.86s3.655-7.966,8.36-10.749c0,0,13.233-9.4,10.462-15.144,0,0,10.749,4.18,16.243.263s13.233-3.917,13.233-3.917-6.043-13.137-3.523-15.526-7.309-14.571-7.309-14.571,7.309-4.622,7.166-11.155,3.655-16.577,3.655-16.577-9.829.263-13.484-3.392S127.735,78.692,127.735,78.692Z" transform="translate(196.87 -25.9)" fill="none" stroke="#d212d9" stroke-miterlimit="10" stroke-width="5"/>
      </g>
      <g transform="matrix(1, 0, 0, 1, -194.22, 28.39)" filter="url(#Pfad_34)">
        <path id="Pfad_34-2" data-name="Pfad 34" d="M136.036,130.57s-6.748,15.2-4.288,23.432c0,0-9.554-7.524-26.358-5.374" transform="translate(205.71 -10.73)" fill="none" stroke="#d212d9" stroke-miterlimit="10" stroke-width="5"/>
      </g>
      <g transform="matrix(1, 0, 0, 1, -194.22, 28.39)" filter="url(#Pfad_35)">
        <path id="Pfad_35-2" data-name="Pfad 35" d="M100.124,147.465s-20.3,1.075-24.448,6.951c0,0,.573-17.747-6.616-25.976" transform="translate(198.65 -11.14)" fill="none" stroke="#d212d9" stroke-miterlimit="10" stroke-width="5"/>
      </g>
      <g transform="matrix(1, 0, 0, 1, -194.22, 28.39)" filter="url(#Pfad_36)">
        <path id="Pfad_36-2" data-name="Pfad 36" d="M65.569,122.7s-8.229-13.926-15.789-16.47c0,0,12.122-9.208,15.789-17.043" transform="translate(194.9 -18.77)" fill="none" stroke="#d212d9" stroke-miterlimit="10" stroke-width="5"/>
      </g>
      <g transform="matrix(1, 0, 0, 1, -194.22, 28.39)" filter="url(#Pfad_37)">
        <path id="Pfad_37-2" data-name="Pfad 37" d="M72,78.784s5.016-11.943,4.073-21.9c0,0,15.526,9.22,24.412,6.891" transform="translate(199.22 -25.04)" fill="none" stroke="#d212d9" stroke-miterlimit="10" stroke-width="5"/>
      </g>
      <g transform="matrix(1, 0, 0, 1, -194.22, 28.39)" filter="url(#Pfad_38)">
        <path id="Pfad_38-2" data-name="Pfad 38" d="M104.77,63.437s21.5-2.831,26.275-6.557c0,0,.382,19.623,5.864,24.794" transform="translate(205.59 -25.04)" fill="none" stroke="#d212d9" stroke-miterlimit="10" stroke-width="5"/>
      </g>
      <g transform="matrix(1, 0, 0, 1, -194.22, 28.39)" filter="url(#Pfad_39)">
        <path id="Pfad_39-2" data-name="Pfad 39" d="M139.126,87.86s7.847,14.487,14.642,18.345c0,0-10.534,11.609-15.849,15.526" transform="translate(212.03 -19.02)" fill="none" stroke="#d212d9" stroke-miterlimit="10" stroke-width="5"/>
      </g>
      <g transform="matrix(1, 0, 0, 1, -194.22, 28.39)" filter="url(#Pfad_40)">
        <path id="Pfad_40-2" data-name="Pfad 40" d="M127.34,64s19.611,8.969,31.506,8.766c0,0-5.709,25.642-8.671,34.253" transform="translate(209.97 -23.66)" fill="none" stroke="#d212d9" stroke-miterlimit="10" stroke-width="5"/>
      </g>
      <g transform="matrix(1, 0, 0, 1, -194.22, 28.39)" filter="url(#Pfad_41)">
        <path id="Pfad_41-2" data-name="Pfad 41" d="M152.914,105.84s-3.272,22.083,5.972,34.169c0,0-20.865,1.409-31.506,10.008" transform="translate(209.98 -15.53)" fill="none" stroke="#d212d9" stroke-miterlimit="10" stroke-width="5"/>
      </g>
      <g transform="matrix(1, 0, 0, 1, -194.22, 28.39)" filter="url(#Pfad_42)">
        <path id="Pfad_42-2" data-name="Pfad 42" d="M128.083,146.81s-17.843,17.162-23.492,25.976A47.331,47.331,0,0,0,80.43,146.81" transform="translate(200.86 -7.57)" fill="none" stroke="#d212d9" stroke-miterlimit="10" stroke-width="5"/>
      </g>
      <g transform="matrix(1, 0, 0, 1, -194.22, 28.39)" filter="url(#Pfad_43)">
        <path id="Pfad_43-2" data-name="Pfad 43" d="M79.8,151.687S64.983,139.123,46.28,140.294c0,0,11.621-17.377,8.169-34.934" transform="translate(194.22 -15.62)" fill="none" stroke="#d212d9" stroke-miterlimit="10" stroke-width="5"/>
      </g>
      <g transform="matrix(1, 0, 0, 1, -194.22, 28.39)" filter="url(#Pfad_44)">
        <path id="Pfad_44-2" data-name="Pfad 44" d="M55.1,107.324s-1.5-28.389-7.4-35.614c0,0,12.075,4.132,32.963-9.4" transform="translate(194.5 -23.99)" fill="none" stroke="#d212d9" stroke-miterlimit="10" stroke-width="5"/>
      </g>
      <g transform="matrix(1, 0, 0, 1, -194.22, 28.39)" filter="url(#Pfad_45)">
        <path id="Pfad_45-2" data-name="Pfad 45" d="M80.43,63.305s20.124-13.687,24.161-23.635c0,0,16.72,24.71,23.456,23.612" transform="translate(200.86 -28.39)" fill="none" stroke="#d212d9" stroke-miterlimit="10" stroke-width="5"/>
      </g>
      <g transform="matrix(1, 0, 0, 1, -194.22, 28.39)" filter="url(#Ellipse_17)">
        <circle id="Ellipse_17-2" data-name="Ellipse 17" cx="36.2" cy="36.2" r="36.2" transform="translate(268.54 50.11)" fill="none" stroke="#d212d9" stroke-miterlimit="10" stroke-width="5"/>
      </g>
    </g>
    <g id="Ajina" transform="translate(1414.51 2237.78)">
      <g transform="matrix(1, 0, 0, 1, -362.01, -135.11)" filter="url(#Ellipse_18)">
        <circle id="Ellipse_18-2" data-name="Ellipse 18" cx="44.13" cy="44.13" r="44.13" transform="translate(416.55 203.33)" fill="none" stroke="#d95cff" stroke-miterlimit="10" stroke-width="5"/>
      </g>
      <g transform="matrix(1, 0, 0, 1, -362.01, -135.11)" filter="url(#Pfad_46)">
        <path id="Pfad_46-2" data-name="Pfad 46" d="M128.55,79.88S142.46,72.37,161,88.4s8.39,17.87,31.34,24c0,0-7.7,3.38-15.2,6.8-8.63,3.92-11,11.94-15.5,15.49-6.48,5.08-16.22,14-35.47,12.2" transform="translate(362.01 135.11)" fill="none" stroke="#d95cff" stroke-miterlimit="10" stroke-width="5"/>
      </g>
      <g transform="matrix(1, 0, 0, 1, -362.01, -135.11)" filter="url(#Pfad_47)">
        <path id="Pfad_47-2" data-name="Pfad 47" d="M68.93,79.83s-12.59-6.41-31.1,9.62-8.39,17.87-31.34,24c0,0,7.7,3.38,15.2,6.79,8.63,3.93,11,12,15.49,15.5,6.48,5.08,16.22,14,35.47,12.2" transform="translate(362.01 135.11)" fill="none" stroke="#d95cff" stroke-miterlimit="10" stroke-width="5"/>
      </g>
      <g transform="matrix(1, 0, 0, 1, -362.01, -135.11)" filter="url(#Pfad_48)">
        <path id="Pfad_48-2" data-name="Pfad 48" d="M98.67,91.18h36.41l-18.2,32.1L98.67,155.39,80.46,123.28l-18.2-32.1Z" transform="translate(362.01 135.11)" fill="none" stroke="#d95cff" stroke-miterlimit="10" stroke-width="5"/>
      </g>
    </g>
  </g>
</svg>
