<svg id="Anahata" xmlns="http://www.w3.org/2000/svg" viewBox="0 0 200 200"><defs><style>.cls-1{fill:none;stroke:#77bc3b;stroke-miterlimit:10;stroke-width:3px;}</style></defs><circle class="cls-1" cx="100.52" cy="110.05" r="50"/><polygon class="cls-1" points="113.85 59.27 101.46 43.88 88.37 59.1 66.64 51.57 65.55 73.52 41.85 75.99 50.78 94.99 34.74 111.33 50.6 124.82 43.13 147.43 65.18 147.43 67.37 171 85.15 159.1 100 178.98 113.85 160.54 133.18 171.75 135.73 146.67 158.15 146.48 149.59 128.54 165.26 111.42 149.59 95.99 157.6 76.37 136.28 74.66 133.72 51.09 113.85 59.27"/><polygon class="cls-1" points="100.52 134.54 141.78 134.54 121.15 98.16 100.52 61.78 79.89 98.16 59.26 134.54 100.52 134.54"/><polygon class="cls-1" points="100.52 85.78 141.78 85.78 121.15 122.16 100.52 158.54 79.89 122.16 59.26 85.78 100.52 85.78"/></svg>