<?xml version="1.0" encoding="UTF-8"?><svg id="Ebene_1" xmlns="http://www.w3.org/2000/svg" viewBox="0 0 500 500"><defs><style>.cls-1{fill:#fff;}</style></defs><path class="cls-1" d="m133.31,467.98c-8.01-5.75-7-11.06-2.45-14.86,1.62-1.36,4.27-2.02,6.47-2.08,8.48-.23,16.97-.09,25.01-.09.86-5.13,1.09-10.07,2.57-14.61,3.01-9.19,9.88-14.87,19.33-15.87,8.55-.9,17.27-.19,26.04-.19,3.47-14.47,6.82-28.41,10.27-42.8h-4.39c-42.59,0-85.18-.24-127.76.12-16.27.14-30.31-10.51-34.47-25.27-.87-3.11-1.17-6.47-1.17-9.71-.07-72.68.03-145.37-.13-218.05-.03-14.23,5.79-24.86,17.87-31.86,5.81-3.37,12.52-4.11,19.29-4.1,74.39.05,148.77,0,223.16.1,3.4,0,5.4-.81,7.38-3.88,8.12-12.58,16.67-24.89,25.08-37.29,6.88-10.14,16.76-15.44,28.71-15.51,16.78-.1,32.06,8.62,37.23,27.01,2.2,7.82,3.15,16.06-3.77,29.28,4.09.5,8.03.91,11.95,1.46,12.78,1.8,24.44,13.15,26.36,25.91.77,5.1,1.36,10.29,1.36,15.44.09,69.28.03,138.55.09,207.83.01,10.39-2.29,20.05-9.64,27.54-6.69,6.82-14.95,11.05-24.96,11-16.47-.09-32.93-.02-49.4-.02-26.26,0-52.53,0-78.79,0h-5.35c1.72,7.86,3.29,15.33,5.01,22.76,1.27,5.48,2.97,10.86,4.01,16.37.49,2.58,1.54,3.25,3.89,3.22,6.1-.08,12.21-.21,18.31.01,11.21.41,22.01,6.54,25.09,19.05.92,3.75,1.11,7.68,1.71,12.06,7.63,0,15.54-.26,23.42.13,3.13.15,7.02.88,9.09,2.87,4,3.87,2.77,10.15-2.29,12.91-.57.31-1.06.75-1.59,1.13h-232.56Zm296.97-182.01c0-26.8,0-52.91,0-79.03,0-27.25.02-54.51-.01-81.76-.01-9.72-4.45-16.91-13.31-18.52-7.41-1.34-15.2-.57-22.83-.65-.56,0-1.25.59-1.67,1.08-2.7,3.2-5.36,6.44-8,9.7-10.8,13.33-21.52,26.73-32.39,40-10.97,13.39-22.09,26.66-33.14,39.99-2.12,2.56-2.57,5.02-1.99,8.68,1.03,6.5,1.07,13.37.25,19.92-2.49,19.7-20.32,33.93-40.85,33.9-6.96,0-13.93.34-20.86-.08-10.56-.63-19.62,2.15-27.43,9.5-4.05,3.82-11.67,1.77-12.83-3.59-2.42-11.17-4.54-22.44-5.92-33.77-.72-5.91.09-12.08.75-18.07,1.3-11.83,5.68-22.47,13.81-31.31,10.73-11.67,24.69-16.04,39.98-17.3,1.42-.12,3.32-.82,4.05-1.89,12.78-18.83,25.42-37.75,38.38-57.1h-5.03c-70.41,0-140.82.1-211.22-.1-11.01-.03-20.49,4.76-20.4,20.53.32,51.67.12,103.34.12,155.01,0,1.5,0,3.01,0,4.71,1.18.07,1.86.15,2.55.15,6.67.01,13.34-.07,20.01.03,5.65.09,8.76,2.23,9.55,6.27,1.27,6.48-2.02,10.64-8.66,10.72-7.75.09-15.5.02-22.97.02,0,14.78-.28,29.1.12,43.4.2,7.37,7.61,13.78,14.95,13.82,22.14.12,44.28.19,66.43.2,86.16.02,172.33-.12,258.49.16,11.95.04,20.73-9.52,20.13-20.22-.35-6.23-.06-12.49-.06-18.73,0-6.07,0-12.14,0-18.62h-5.49c-86.16,0-172.33,0-258.49,0-1.7,0-3.4-.14-5.11-.1-4.1.08-6.27-2.8-7.19-5.92-1.05-3.51-.47-7.54,3.46-9.29,2.56-1.14,5.61-1.65,8.44-1.65,86.31-.08,172.61-.07,258.92-.07,1.67,0,3.34,0,5.47,0Zm-34.46-214.88c-.15-8.7-2.7-14.12-8.36-18.13-9.74-6.9-22.16-4.73-28.1,3.99-16.69,24.48-33.01,49.23-49.37,73.93-.49.74-.29,2.8.33,3.26,7.27,5.5,14.65,10.85,22.09,16.1.6.42,2.33.25,2.79-.28,7.89-9.24,15.71-18.54,23.44-27.92,10.02-12.17,19.96-24.39,29.88-36.64,3.83-4.74,7.81-9.47,7.3-14.31Zm-167.73,174.96c8.18-1.34,15.67-3.12,23.25-3.67,8.61-.62,17.33.23,25.96-.31,4.22-.26,8.76-1.49,12.43-3.57,10.35-5.87,12.47-15.84,11.27-26.71-.32-2.93-1.54-6.59-3.65-8.36-7.4-6.21-15.38-11.74-23.14-17.53-3.72-2.77-7.51-5.3-12.54-4.06-1.34.33-2.71.49-4.06.78-8.6,1.86-16.46,4.83-22.24,12.13-4.99,6.3-7.19,13.36-8.46,21.12-1.74,10.54-.28,20.75,1.19,30.16Zm91.48,204.7c1.29-10.12-3.93-14.1-12.54-14.04-38.17.28-76.33.11-114.5.14-1.98,0-3.99.07-5.92.43-3.89.73-5.92,3.39-6.38,7.17-.25,2.05-.04,4.16-.04,6.3h139.38Zm-58.12-73.28c-7.05,0-14.13-.11-21.2.13-1.02.03-2.59,1.61-2.86,2.73-3.21,13.01-6.21,26.07-9.3,39.23h43.36c-3.36-14.13-6.65-27.96-10.01-42.09Zm61.71-212.64c-7.81-5.74-15.77-11.59-24.13-17.72-5.58,8.39-10.88,16.36-16.16,24.3,6.49,4.77,12.81,8.79,18.35,13.7,3.54,3.14,4.87.87,6.62-1.27,5.03-6.13,9.95-12.34,15.31-19.01Z"/><path class="cls-1" d="m127.92,286.53c5.06,0,9.18,3.53,8.73,7.9-.4,3.88-2.71,8.77-9.14,8.36-4.66-.3-7.82-3.36-7.8-8.26.03-5.09,3.02-8,8.21-8Z"/></svg>