<?xml version="1.0" encoding="UTF-8"?><svg id="Ebene_2" xmlns="http://www.w3.org/2000/svg" viewBox="0 0 500 500"><defs><style>.cls-1{fill:#fff;}</style></defs><path class="cls-1" d="m22.71,383.36c1.48-6.61,2.87-13.24,4.45-19.83,4.14-17.22,8.37-34.41,12.57-51.61,5.85-23.99,11.76-47.97,17.51-71.98,3.34-13.95,9.12-26.68,19.07-37.06,4.12-4.3,9.43-7.53,14.51-10.78,1.94-1.24,3.03-2.1,2.82-4.51-.94-10.93,10.49-25.42,24.04-24.09,6,.59,12.1.25,18.15.07,11.48-.35,22.71,11.41,22.36,23-.12,3.83.92,6.35,4.24,8.03.63.32,1.44.59,1.79,1.13,4.3,6.64,10.77,6.8,17.78,6.67,16.83-.31,33.66-.04,50.5-.15,3.48-.02,5.8,1.84,6.93,4.45.71,1.66.28,5.04-.94,6.01-2.07,1.64-5.16,2.72-7.84,2.76-17.57.23-35.14.12-52.71.12-1.61,0-3.22,0-5.91,0,.57,6.21.42,12.23,1.86,17.85,1.27,4.98,5.58,9.33,14.53,9.27,31.74-.21,63.49-.08,95.24-.08,9.01,0,18.01.03,27.02,0,8.49-.03,14.36-5.15,15.06-13.5.36-4.37.06-8.79.06-13.53-13.75,0-27.14,0-40.53,0-6.79,0-13.59.09-20.38-.04-4.96-.09-7.35-2.43-7.32-6.74.02-4.4,2.21-6.47,7.44-6.49,19.64-.07,39.28-.07,58.91.02,2.48.01,4.05-.86,6.03-2.4,6.52-5.06,10.31-10.86,11.7-19.49,1.53-9.46,11.7-17.85,22.43-16.95,6.01.51,12.11.29,18.15.05,11.08-.45,23.2,11.34,22.36,22.36-.26,3.46,1.12,5.29,3.98,6.86,18.18,10,27.56,26.33,32.42,45.76,4.71,18.83,9.3,37.68,13.86,56.54,5.77,23.87,11.08,47.87,17.32,71.62,3.28,12.49,4.57,25.13,3.17,37.64-2.2,19.65-14.4,34.46-34.52,40.01-18.18,5.01-35.15.93-50.12-10.06-8.63-6.34-14.32-15.27-17.84-25.6-4.26-12.51-9.01-24.87-13.64-37.25-1.77-4.73-3.86-5.02-7.71-1.91-8.85,7.17-18.73,11.74-30.29,13.07-18.04,2.07-33.58-3.12-47.44-14.42-.89-.72-2.44-.89-3.68-.89-13.88-.06-27.76-.09-41.64.04-1.58.01-3.44.67-4.67,1.65-9.54,7.68-20.43,11.86-32.49,13.55-17.33,2.43-32.2-2.87-45.39-13.83-2.58-2.14-4.41-1.92-5.64,1.35-4.03,10.71-8.09,21.41-12.12,32.12-3.55,9.42-6.49,19.44-14.04,26.39-5.73,5.28-12.59,9.71-19.63,13.09-8.07,3.87-17.08,5.29-26.16,4.61-20.96-1.58-37.7-13.73-43.73-34.8-.65-2.26-1.22-4.54-1.83-6.82,0-1.77,0-3.54,0-5.32.25-3.01.5-6.02.75-9.04-.25-1.12-.5-2.25-.75-3.37,0-1.18,0-2.36,0-3.54Zm225.97-127.44s0-.09,0-.14c-21.56,0-43.12-.22-64.67.11-8.73.13-19.76-9.7-22.29-16.74-3-8.35-2.71-16.91-2.45-25.47.12-4.05-1.37-6.49-4.68-8.49-13.57-8.21-28.45-9.85-43.43-6.75-19.85,4.11-32.99,17.22-38.53,36.26-6.94,23.84-12.1,48.2-18.02,72.34-4.96,20.24-9.92,40.48-14.86,60.73-3.06,12.56-5.55,25.2-2.73,38.14,1.76,8.1,5.5,15.1,12.49,20.09,9.81,7.01,20.68,8.46,32.08,5.85,10.08-2.3,19.64-6.47,25.27-15.54,4.15-6.68,6.72-14.37,9.72-21.73,4.2-10.3,7.91-20.81,12.26-31.04,4.9-11.51,16.69-12.03,25.12-5.27,8.87,7.12,18.6,12.08,30.2,11.72,11.89-.38,22.75-4.06,31.85-12.04,3.15-2.77,6.52-4.21,10.95-4.1,12.4.31,24.81.25,37.21.05,7.68-.12,15.31-.66,20.72,6.38.32.42.94.6,1.41.9,19.51,12.68,40.26,11.41,56.99-2.15,10.09-8.18,21.4-6.61,26.73,5.17,5.32,11.73,9.33,24.05,14.24,35.98,2.53,6.15,4.74,12.9,8.91,17.83,10.72,12.68,25.06,16.88,41.33,14.03,8.96-1.57,16.15-6.12,21.67-13.57,8.04-10.86,7.42-23.43,5.59-35.28-2.61-16.88-7.46-33.41-11.45-50.07-5.12-21.4-10.16-42.82-15.58-64.14-3.41-13.41-6.63-26.95-11.38-39.91-7.79-21.28-24.99-30.09-46.53-31.78-9.52-.75-18.67,1.33-27.56,4.59-7.93,2.91-10.21,6.34-10.21,14.79,0,3.4-.02,6.79,0,10.19.14,16.86-12.58,29.55-28.83,29.18-20.51-.47-41.05-.11-61.57-.11Zm-141.73-70c12.82-3.49,25.44-1.84,38.42.75-2.76-7.78-5.47-9.77-12.31-9.77-4.86,0-9.72.02-14.58,0-6.71-.04-9.01,1.68-11.53,9.03Zm246.85-1.03h37.32c-1.03-5.13-4.36-7.99-9.72-7.99-5.01,0-10.05.36-15.02-.09-6.81-.62-10.63,2.57-12.58,8.08Z"/><path class="cls-1" d="m98.74,293.3c-16.03-1.27-22.56-10.66-22.57-20.95-.01-10.25,5.22-19.3,22.42-21.38,1.22-11.52,7.36-20.2,15.27-20.82,6.66-.52,13.15-.52,18.79,4.63,5.28,4.82,6,11.11,7.18,17.3,14.34-.68,22.75,11.01,21.96,21.21-.78,10.09-7.81,17.8-19.68,19.58-2.59.39-3.27,1.68-3.26,3.56.06,10.79-11.09,19.28-21.35,18.68-10.2-.6-19.55-10.6-18.6-20.17.05-.55-.1-1.12-.15-1.64Zm39.72-14.5c.88,0,1.77,0,2.65,0,4.41,0,7.38-2.64,7.42-6.6.04-3.93-2.93-6.62-7.41-6.69-2.36-.03-4.72.07-7.08-.02-5.28-.22-7.48-2.59-7.7-7.88-.15-3.47-.12-7.03-.93-10.37-1.1-4.53-5.09-4.05-8.62-3.88-3.43.16-4.19,2.84-4.49,5.45-.32,2.77.14,5.62-.18,8.39-.62,5.32-2.94,8.25-7.95,7.46-1.87-.29-3.83-.14-5.74-.03-5.57.33-9.67,3.52-9.19,7.6.53,4.55,4.01,8.21,9.78,7.49,2.18-.27,4.42.05,6.63-.07,3.16-.18,5.12,1.46,5.64,4.28.62,3.4.75,6.91.87,10.38.13,4,1.86,6.95,5.85,7.39,3.79.42,6.81-1.49,7.52-5.56.54-3.12.69-6.31.82-9.48.21-5.27,2.38-7.59,7.69-7.86,1.47-.08,2.95-.01,4.42-.01Z"/><path class="cls-1" d="m218.54,326.16c1.05,16.93-14.71,31.81-31.87,31.45-17.27-.36-30.92-14.43-30.89-31.41.03-17.7,13.14-31.04,30.47-31.45,17.92-.43,33.29,14.06,32.29,31.41Zm-13.29.4c.91-10.45-7.9-18.46-18.2-18.57-11.04-.12-18.23,9.37-18.02,18.34.23,9.69,8,17.83,17.69,18.05,9.83.22,19.97-9.8,18.53-17.83Z"/><path class="cls-1" d="m285,326.18c-.14-17.24,13.7-31.81,31.91-31.44,17.04.35,31.48,13.6,30.97,32.39-.45,16.81-14.84,30.57-32.76,30.52-15.1-.05-30.66-14.78-30.12-31.47Zm31.1-18.14c-8.81-.61-17.98,7.4-17.84,18.04.13,9.75,8.41,18.27,18.06,18.29,9.85.02,18.55-8.52,18.24-18.5-.33-10.44-6.9-17.45-18.45-17.83Z"/><path class="cls-1" d="m333.75,269c-1.12-8.31,7.63-17.77,17.67-16.94,9.3.77,16.73,7.4,16.69,16.97-.05,10.42-8.16,17.26-18.12,17.69-6.67.29-17.23-7.29-16.25-17.72Zm17.84-4.16c-3.45.36-4.66,1.27-4.6,4.05.06,2.41.51,3.7,3.35,3.84,2.83.14,4.4-1.45,4.4-3.5,0-1.47-2.03-2.93-3.16-4.39Z"/><path class="cls-1" d="m422.35,268.95c.83,11.21-9.43,17.72-17.15,17.68-9.57-.04-16.98-7.7-17.2-17.43-.18-8.09,5.84-18.15,18.96-17.06,7.05.59,15.77,5.83,15.39,16.8Zm-12.69-1.22c-1.42-.75-2.77-1.78-4.28-2.17-2.93-.76-4.15,1.7-4.08,3.65.08,2.01,1.54,3.72,4.44,3.49,2.74-.22,3.67-1.26,3.92-4.97Z"/><path class="cls-1" d="m394.88,241.78c1.25,9.72-8.44,17.53-17.4,17.51-7.96-.02-16.46-8.18-16.54-17.25-.09-10.12,8.98-17.3,16.08-17.5,8.9-.25,19.39,7.49,17.86,17.24Zm-13.79-1.94c-.38-.21-1.77-1.49-3.29-1.68-1.97-.24-3.94.78-3.25,3.3.41,1.5,1.7,3.93,2.54,3.91,2.11-.05,5.44.09,4.01-5.54Z"/><path class="cls-1" d="m377.63,313.36c-7.75,1.51-16.55-7.64-16.7-16.62-.15-8.93,7.84-17.45,15.72-17.17,10.99.4,18.21,6.09,18.23,15.31.02,12.01-5.98,18.43-17.25,18.48Zm-.74-21.03c-.81,1.41-2.05,2.73-2.33,4.23-.45,2.47.84,3.66,3.56,3.58,2.65-.07,3.53-1.03,3.56-3.69.03-2.78-1.06-3.75-4.79-4.12Z"/><path class="cls-1" d="m271.79,277.03c1.62,0,3.23-.02,4.85,0,3.63.05,6.34,2.46,6.58,5.84.21,2.91-2.56,6.27-5.84,6.49-3.95.26-7.96.35-11.89-.01-3.61-.33-5.56-2.8-5.27-6.47.28-3.44,1.54-6.19,5.83-5.88,1.9.14,3.82.02,5.73.03Z"/><path class="cls-1" d="m251.47,311.58c2.06,0,4.14-.15,6.19.03,3.87.34,5.55,2.78,5.18,7.4-.28,3.5-2.23,5.07-5.78,5.02-3.64-.05-7.29.35-10.93.27-3.72-.08-5.15-2.68-5.38-5.95-.24-3.32.71-6.18,4.55-6.73,2.02-.29,4.12-.05,6.18-.05v.02Z"/><path class="cls-1" d="m226.95,277.03c1.62,0,3.24.06,4.86-.01,3.83-.18,6.14,1.34,6.23,5.41.11,4.86-1.62,6.87-6.17,6.99-3.38.09-6.78.11-10.16-.01-4.15-.15-5.89-2.32-5.82-6.96.06-3.67,2.08-5.44,6.2-5.42,1.62,0,3.24,0,4.86,0Z"/></svg>