<?xml version="1.0" encoding="UTF-8"?><svg id="Ebene_3" xmlns="http://www.w3.org/2000/svg" viewBox="0 0 500 500"><defs><style>.cls-1{fill:#fff;}</style></defs><path class="cls-1" d="m242.25,163.96h6.13c63.22,0,126.44.09,189.66-.07,14.9-.04,24.94,8.92,24.91,24.96-.09,57-.15,114,.04,171,.05,15.81-11.02,24.86-24.7,24.72-33.89-.35-67.78-.11-101.67-.11-1.63,0-3.27,0-5.11,0,1.94,9.66,3.95,18.86,5.52,28.13.42,2.49,1.35,2.96,3.46,2.94,5.47-.06,10.94-.01,16.41-.02,4.96,0,8.2,2.58,8.39,6.74.18,3.96-3.6,7.56-8.36,7.6-10.78.09-21.56.03-32.34.03-30.54,0-61.07-.02-91.61.02-3.83,0-7.09-.56-8.99-4.53-2.43-5.06,1.64-10.49,8.81-10.74,5.16-.18,10.34-.22,15.5.04,2.57.13,3.47-1.14,3.92-3.13,2.01-8.91,3.95-17.83,5.99-27.08-1.8,0-3.56,0-5.33,0-35.71-.01-71.43-.18-107.14.09-8.04.06-19.48-9.75-19.47-18.66.03-25.15-.09-50.3-.15-75.45,0-1.64,0-3.29-.76-3.8-10.93-4.01-21.98-7.73-32.73-12.15-6.74-2.77-9.07-9.24-7.29-17,1.29-5.59,2.57-11.18,3.79-16.79.61-2.79-1.34-4.83-4.1-4.18-6.43,1.51-12.88,3.01-19.24,4.79-5.54,1.54-11.35.02-13.83-4.96-4.63-9.32-8.87-18.85-12.94-28.43-1.78-4.18.83-10.62,4.79-13.29,5.5-3.7,11.1-7.27,16.59-11,3.26-2.21,3-5.41-.44-7.4-5.07-2.94-10.11-5.95-15.2-8.85-6.32-3.59-8.56-10.13-5.92-16.69,2.96-7.36,5.84-14.76,8.41-22.25,3.36-9.77,9.2-11.06,18.47-9.12,4.44.93,8.79,2.32,13.22,3.32,5.15,1.15,8.08-2.41,6.54-7.65-1.61-5.49-3.11-11.01-4.58-16.54-1.25-4.7,1.13-11.04,5.43-13.12,8.56-4.14,17.16-8.25,25.99-11.75,7.89-3.13,13.16-.87,17.66,6.35,2.35,3.76,4.75,7.49,7.2,11.19,3.22,4.86,7.62,4.69,10.69-.38,2.53-4.18,5.06-8.36,7.55-12.56,3.59-6.06,8.98-8.44,15.47-6.19,8.68,3.01,17.3,6.25,25.81,9.71,6.1,2.48,8.4,7.28,7.15,13.89-1.04,5.5-2.17,10.98-3.42,16.43-.96,4.21,1.83,7.75,6.1,6.98,5.34-.96,10.62-2.36,15.89-3.69,8.65-2.18,13-.36,16.63,7.54,3.68,8.01,7.14,16.13,10.6,24.23,2.15,5.04.15,11.52-4.36,14.69-.65.45-1.29.91-3.08,2.18Zm205.16,167.45c.25-.25.51-.49.76-.74.05-1.52.15-3.03.15-4.55,0-45.6,0-91.19,0-136.79,0-8.47-2.28-10.78-10.67-10.78-74.83,0-149.66-.02-224.5.03-7.26,0-14.52.62-21.78.58-13.78-.06-27.57-.44-41.35-.59-7.35-.08-9.25,1.8-9.27,8.98-.04,13.68,0,27.36,0,41.03,0,13.67-.03,27.34,0,41.01.05,20.36.14,40.72.22,61.07.3.25.6.49.9.74,1.06.05,2.12.14,3.18.14,99.73,0,199.45,0,299.18,0,1.06,0,2.12-.09,3.18-.14ZM167.45,86.22c-2.85,4.96-5.62,9.33-7.94,13.92-3.05,6.05-7.39,9.61-14.49,8.88-.75-.08-1.54-.11-2.27.03-7.22,1.42-11.63-.31-15.44-6.16-2.66-4.09-5.53-8.08-7.84-12.36-1.56-2.89-3.12-2.96-5.76-1.71-4.35,2.06-8.83,3.83-13.27,5.69-3.12,1.31-5.39,2.68-3.32,6.83,1.35,2.7,1.77,5.88,2.42,8.89,1.05,4.91,3.95,9.93.48,14.84-2.49,3.52-5.1,7.26-8.5,9.74-2.74,2-6.86,3.36-10.18,3.04-5.92-.58-11.68-2.76-17.56-3.98-1.01-.21-3.01.68-3.38,1.55-2.73,6.56-5.16,13.25-7.64,19.79,1.62.99,2.96,1.87,4.36,2.66,4.59,2.61,9.27,5.08,13.79,7.79,7.1,4.25,6.29,11.3,6.21,18.1-.05,4.4-1.84,7.71-5.5,10.09-5.06,3.29-10.15,6.53-15.1,9.96-.98.68-2.26,2.51-1.96,3.21,2.81,6.61,5.92,13.09,9.01,19.72,6.09-1.58,11.85-3.16,17.65-4.58,8.4-2.05,15.4.84,20.53,7.95,2.76,3.82,3.41,7.71,2.2,12.22-1.52,5.68-2.79,11.42-3.92,17.19-.15.78.93,2.33,1.79,2.7,5.77,2.48,11.61,4.79,17.49,6.99.93.35,2.87.19,3.17-.36,1.43-2.71,3.35-5.59,3.48-8.48.43-9.4.23-18.84.07-28.26-.02-1.16-1.04-2.98-2.02-3.34-9.8-3.66-17.43-10.05-23.5-18.39-8.18-11.23-12.33-24.02-10.44-37.67,3.01-21.67,14.2-37.95,35.33-45.9,13.46-5.06,27.02-4.25,40.33,1.02,12.98,5.14,23.32,13.97,27.98,26.84,3.38,9.35,8.85,9.9,16.44,9.08,2.19-.24,4.83.28,6.51-.76,6.38-3.94,12.45-8.38,18.82-12.76-2.56-5.35-5.93-10.69-7.64-16.52-1.38-4.7-4.17-4.12-7.07-3.47-4.69,1.06-9.2,2.92-13.88,4.06-3.95.97-7.8.24-10.88-2.65-2.88-2.7-6-5.29-8.21-8.48-1.62-2.34-2.98-5.71-2.63-8.39.85-6.66,2.75-13.18,4.31-20.11-7.32-2.81-14.48-5.56-22.04-8.47Zm-27.4,260.03c0,5.57-.12,10.72.04,15.86.16,5,2.98,7.74,7.75,7.74,97.39.02,194.78-.01,292.18.11,4.12,0,7.73-2.76,8.11-6.59.57-5.65.15-11.4.15-17.12H140.05Zm41.93-182.28c-6.69-19.02-26.96-30.03-48.23-24.6-18.67,4.77-30.76,22.04-29.18,42.45,1.15,14.85,13.07,29.4,21.57,30.65,0-8.36-.07-16.71.04-25.06.04-2.82.14-5.75.92-8.42,2.81-9.58,10.44-14.92,21.18-15.01,11.19-.09,22.38-.02,33.7-.02Zm134.82,220.72h-43.44c-2.44,10.26-4.84,20.3-7.23,30.33h56.45c-1.96-10.27-3.86-20.22-5.79-30.33Z"/><path class="cls-1" d="m209.47,255.18c8.66,9.08,17.19,18.06,25.77,27.01,3.57,3.73,3.44,8.35-.42,11.65-3.04,2.6-8.09,1.5-10.89-2.24-1.26-1.68-2.66-3.27-4.12-4.79-8.39-8.73-16.86-17.4-25.23-26.15-3.62-3.79-3.6-7.61.39-11.79,10.14-10.63,20.42-21.14,30.71-31.62,2.88-2.93,7.78-2.7,10.52.23,2.26,2.42,2.04,7.04-.46,9.71-8.79,9.35-17.57,18.71-26.28,27.99Z"/><path class="cls-1" d="m357.55,214.5c2.52,1.51,4.62,2.27,6.04,3.7,9.9,10,19.7,20.12,29.46,30.25,4.61,4.79,4.48,8.37-.14,13.12-9.92,10.2-19.79,20.46-29.72,30.64-3.8,3.9-7.12,4.12-10.37.89-3.19-3.17-3.05-7.38.47-11.05,7.53-7.87,15.02-15.77,22.69-23.5,2.3-2.31,2.52-3.73.09-6.23-7.88-8.11-15.3-16.66-23.23-24.71-2.75-2.8-2.77-5.99-1.68-8.65.78-1.89,3.9-2.82,6.39-4.45Z"/><path class="cls-1" d="m307.53,208.43c6.63.03,9.21,3.87,7.03,10.26-5.06,14.83-10.24,29.62-15.37,44.43-3.79,10.95-7.54,21.92-11.37,32.86-1.73,4.96-5.74,7.46-9.7,6.23-4.22-1.31-5.86-5.63-4-11.08,8.8-25.81,17.59-51.63,26.57-77.38,1.06-3.03,2.91-6.15,6.84-5.31Z"/><path class="cls-1" d="m355.39,365.34c-1.67,0-3.34.07-5.01-.01-4.11-.2-6.89-3.09-6.95-7.15-.06-4.1,2.6-7.29,6.7-7.34,4.01-.05,8.04.33,12.03.76,4.31.47,5.16,3.73,4.92,7.24-.27,3.97-3.09,5.82-6.69,6.45-1.62.28-3.33.05-5,.05Z"/><path class="cls-1" d="m419.85,365.35c-3.87-.21-8.18,1.11-10.51-3.77-2.41-5.06-.82-9.7,4.64-10.48,4.33-.61,8.92,0,13.32.6,4.14.57,4.92,3.99,4.55,7.47-.37,3.48-2.67,5.59-6.1,6.11-1.93.29-3.93.05-5.91.06Z"/><path class="cls-1" d="m387.63,350.73c1.66,0,3.34-.14,4.99.03,4.26.43,6.56,3.33,6.45,7.93-.09,3.68-2.87,6.45-6.83,6.64-2.41.11-4.84.02-7.26.02-5.84-.01-8.71-2.32-8.78-7.05-.07-5.08,2.73-7.52,8.71-7.58.91,0,1.81,0,2.72,0v.02Z"/></svg>