<?xml version="1.0" encoding="UTF-8"?><svg id="Requirements" xmlns="http://www.w3.org/2000/svg" viewBox="0 0 500 500"><defs><style>.cls-1{fill:none;stroke:#333;stroke-miterlimit:10;stroke-width:15px;}</style></defs><path class="cls-1" d="m384.97,130.85v283.74c0,4.92-3.99,8.91-8.91,8.91H123.94c-4.92,0-8.91-3.99-8.91-8.91V87.64c0-4.92,3.99-8.91,8.91-8.91h217.55c2.71,0,5.27,1.23,6.96,3.34l34.57,43.21c1.26,1.58,1.95,3.54,1.95,5.57Z"/><g><circle class="cls-1" cx="250" cy="164.15" r="62.36"/><polyline class="cls-1" points="221.94 169.7 242.87 186.22 278.06 142.08"/></g><path class="cls-1" d="m172.05,247.1h-12.47c-4.92,0-8.91,3.99-8.91,8.91v27.62c0,4.92,3.99,8.91,8.91,8.91h41.87c4.92,0,8.91-3.99,8.91-8.91v-8.02"/><path class="cls-1" d="m172.05,329.96h-12.47c-4.92,0-8.91,3.99-8.91,8.91v27.62c0,4.92,3.99,8.91,8.91,8.91h41.87c4.92,0,8.91-3.99,8.91-8.91v-8.02"/><line class="cls-1" x1="180.51" y1="352.57" x2="219.21" y2="313.87"/><line class="cls-1" x1="178.73" y1="274.17" x2="217.43" y2="235.47"/><line class="cls-1" x1="250" y1="269.82" x2="338.69" y2="269.82"/><line class="cls-1" x1="250" y1="350.13" x2="338.69" y2="350.13"/><path class="cls-1" d="m382.74,133.52h-36.16c-4.92,0-8.91-3.99-8.91-8.91v-48.11"/></svg>