<?xml version="1.0" encoding="UTF-8"?><svg id="Gruppe" xmlns="http://www.w3.org/2000/svg" viewBox="0 0 500 500"><defs><style>.cls-1{fill:none;stroke:#333;stroke-miterlimit:10;stroke-width:15px;}</style></defs><circle class="cls-1" cx="250.21" cy="168.45" r="55.66"/><circle class="cls-1" cx="376.79" cy="186.59" r="42.06"/><circle class="cls-1" cx="123.62" cy="182.47" r="42.06"/><path class="cls-1" d="m165.68,291.74s.26-25.15,14.84-43.29c-7.32-12.49-22.27-21.74-51.79-19.85h-10.63c-58.8-3.75-58.8,47.85-58.8,47.85v55.05c0,1.2.61,2.31,1.62,2.95,8.46,5.33,49.31,28.02,104.76,8.54v-51.24Z"/><path class="cls-1" d="m381.9,231.06h-10.63c-27.15-1.73-41.75,8.33-49.62,19.67,13.08,17.75,13.09,38.53,13.09,38.53v57.29c22.31,7.72,59.68,13.18,104.3-9.84,1.03-.53,1.66-1.59,1.66-2.75v-55.05s0-51.61-58.8-47.85Z"/><path class="cls-1" d="m243.2,226.18c-77.52-4.95-77.52,63.09-77.52,63.09v72.57h0c0,1.58.8,3.04,2.14,3.89,12.47,7.86,78.3,44.32,164.72-.26,1.35-.7,2.19-2.1,2.19-3.62h0v-72.57s0-68.03-77.52-63.09h-14.02Z"/></svg>