<?xml version="1.0" encoding="UTF-8"?><svg id="Kalender" xmlns="http://www.w3.org/2000/svg" viewBox="0 0 500 500"><defs><style>.cls-1{fill:#333;}.cls-2{fill:none;stroke:#333;stroke-miterlimit:10;stroke-width:15px;}</style></defs><path class="cls-2" d="m316.94,118.17v-26.67c0-5.52-4.48-10-10-10h-20.44c-5.52,0-10,4.48-10,10v26.67h-107.56v-26.67c0-5.52-4.48-10-10-10h-20.44c-5.52,0-10,4.48-10,10v26.67h-29c-5.52,0-10,4.48-10,10v63.33h260.64v-63.33c0-5.52-4.48-10-10-10h-23.2Z"/><path class="cls-2" d="m350.14,298.51v-107.01H89.5v156.67c0,5.52,4.48,10,10,10h191.01c.18-32.86,26.77-59.46,59.63-59.66Z"/><circle class="cls-2" cx="350.5" cy="358.5" r="60"/><polyline class="cls-2" points="350.14 324.13 350.5 358.5 376.81 358.5"/><rect class="cls-1" x="128.5" y="222.5" width="35" height="20" rx="5.57" ry="5.57"/><rect class="cls-1" x="179.5" y="222.5" width="35" height="20" rx="5.57" ry="5.57"/><rect class="cls-1" x="229.5" y="222.5" width="35" height="20" rx="5.57" ry="5.57"/><rect class="cls-1" x="279.5" y="222.5" width="35" height="20" rx="5.57" ry="5.57"/><rect class="cls-1" x="128.5" y="260.5" width="35" height="20" rx="5.57" ry="5.57"/><rect class="cls-1" x="179.5" y="260.5" width="35" height="20" rx="5.57" ry="5.57"/><rect class="cls-1" x="229.5" y="260.5" width="35" height="20" rx="5.57" ry="5.57"/><rect class="cls-1" x="128.5" y="298.5" width="35" height="20" rx="5.57" ry="5.57"/><rect class="cls-1" x="179.5" y="298.5" width="35" height="20" rx="5.57" ry="5.57"/><rect class="cls-2" x="276.39" y="81.96" width="40.44" height="66.63" rx="10" ry="10"/><rect class="cls-2" x="128.39" y="81.96" width="40.44" height="66.63" rx="10" ry="10"/></svg>