<?xml version="1.0" encoding="UTF-8"?><svg id="Ebene_4" xmlns="http://www.w3.org/2000/svg" viewBox="0 0 500 500"><defs><style>.cls-1{fill:#fff;}.cls-1,.cls-2{stroke:#333;stroke-miterlimit:10;stroke-width:15px;}.cls-2{fill:none;}</style></defs><path class="cls-2" d="m194.57,441.03c-19.43-5.59-37.65-14.05-54.17-24.87l-22.86,4.74c-4.49.93-9.13-.6-12.18-4.02l-32.79-36.78c-3.05-3.42-4.04-8.21-2.6-12.56l6.33-19.17c-8.49-14.72-15.16-30.61-19.72-47.38l-29.49-17.03c-3.97-2.29-6.41-6.52-6.41-11.11v-49.28c0-4.58,2.44-8.81,6.41-11.11l29.49-17.03c4.78-17.59,11.9-34.22,20.99-49.53l-7.88-23.1c-1.48-4.34-.53-9.13,2.48-12.58l32.43-37.1c3.02-3.45,7.64-5.03,12.14-4.14l31.73,6.26c14.95-8.81,31.14-15.73,48.24-20.45l17.71-30.68c2.29-3.97,6.52-6.41,11.11-6.41h49.28c4.58,0,8.81,2.44,11.11,6.41l17.71,30.68c17.03,4.7,33.14,11.58,48.03,20.33l28.59-5.93c4.49-.93,9.13.6,12.18,4.02l37.72,42.31-2.47,3.18h-100c-22.95-13.97-49.56-20.67-78.44-20.5-82.95.51-150.17,69.12-149.05,152.07.84,62.31,39.67,115.44,94.38,137.29v53.45Z"/><g><path class="cls-2" d="m479.33,173.56v299.32c0,5.19-4.21,9.4-9.4,9.4H203.97c-5.19,0-9.4-4.21-9.4-9.4V127.97c0-5.19,4.21-9.4,9.4-9.4h229.49c2.85,0,5.56,1.3,7.34,3.53l36.47,45.59c1.33,1.67,2.06,3.74,2.06,5.87Z"/><line class="cls-1" x1="236.95" y1="176.16" x2="330.51" y2="176.16"/><line class="cls-1" x1="236.95" y1="207.88" x2="400.17" y2="207.88"/><line class="cls-1" x1="236.95" y1="239.88" x2="380.17" y2="239.88"/><line class="cls-1" x1="236.95" y1="271.88" x2="419.17" y2="271.88"/><path class="cls-2" d="m476.98,176.37h-38.15c-5.19,0-9.4-4.21-9.4-9.4v-50.75"/><rect class="cls-2" x="239.67" y="398.72" width="190" height="40" rx="6.98" ry="6.98"/><line class="cls-1" x1="323.67" y1="311.72" x2="310.67" y2="377.72"/><path class="cls-2" d="m336.67,321.17l28.48,25.56c.91.82.78,2.29-.27,2.93l-30.21,18.5"/><path class="cls-2" d="m289.66,321.17l-28.48,25.56c-.91.82-.78,2.29.27,2.93l30.21,18.5"/></g></svg>