<?xml version="1.0" encoding="UTF-8"?>
<svg id="Ebene_1" xmlns="http://www.w3.org/2000/svg" viewBox="0 0 100 39.33">
  <defs>
    <style>
      .cls-1 {
        fill: #b2b2b2;
      }
    </style>
  </defs>
  <g>
    <path class="cls-1" d="M30.7,8.04l13.76,13.22c.35.34.11.94-.38.94h-6.45c-.2,0-.38-.11-.48-.28l-7.31-13.22c-.3-.55.4-1.09.85-.66h0Z"/>
    <path class="cls-1" d="M34.73,21.91l-6.13-10.67c-.21-.37-.75-.37-.96,0l-6.13,10.67c-.11.19-.1.42.03.59l6.14,8.71c.22.31.68.31.9,0l6.13-8.71c.12-.18.13-.41.03-.59h0Z"/>
    <path class="cls-1" d="M25.32,8.08l-13.7,13.16c-.36.34-.12.95.38.95h6.42c.2,0,.39-.11.48-.29l7.28-13.16c.31-.55-.41-1.11-.87-.67h0Z"/>
  </g>
  <g>
    <path class="cls-1" d="M74.63,31.29l13.76-13.22c.35-.34.11-.94-.38-.94h-6.45c-.2,0-.38.11-.48.28l-7.31,13.22c-.3.55.4,1.09.85.66h0Z"/>
    <path class="cls-1" d="M78.65,17.42l-6.13,10.67c-.21.37-.75.37-.96,0l-6.13-10.67c-.11-.19-.1-.42.03-.59l6.14-8.71c.22-.31.68-.31.9,0l6.13,8.71c.12.18.13.41.03.59h0Z"/>
    <path class="cls-1" d="M69.24,31.25l-13.7-13.16c-.36-.34-.12-.95.38-.95h6.42c.2,0,.39.11.48.29l7.28,13.16c.31.55-.41,1.11-.87.67h0Z"/>
  </g>
</svg>