<?xml version="1.0" encoding="UTF-8" standalone="no"?>
<svg
   xmlns:dc="http://purl.org/dc/elements/1.1/"
   xmlns:cc="http://creativecommons.org/ns#"
   xmlns:rdf="http://www.w3.org/1999/02/22-rdf-syntax-ns#"
   xmlns:svg="http://www.w3.org/2000/svg"
   xmlns="http://www.w3.org/2000/svg"
   xmlns:sodipodi="http://sodipodi.sourceforge.net/DTD/sodipodi-0.dtd"
   xmlns:inkscape="http://www.inkscape.org/namespaces/inkscape"
   id="Abstraktes_Logo"
   data-name="Abstraktes Logo"
   viewBox="0 0 200 300"
   version="1.1"
   sodipodi:docname="LogoLightOrange-04.svg"
   inkscape:version="1.0.2 (e86c870879, 2021-01-15)">
  <metadata
     id="metadata18">
    <rdf:RDF>
      <cc:Work
         rdf:about="">
        <dc:format>image/svg+xml</dc:format>
        <dc:type
           rdf:resource="http://purl.org/dc/dcmitype/StillImage" />
        <dc:title></dc:title>
      </cc:Work>
    </rdf:RDF>
  </metadata>
  <sodipodi:namedview
     pagecolor="#ffffff"
     bordercolor="#666666"
     borderopacity="1"
     objecttolerance="10"
     gridtolerance="10"
     guidetolerance="10"
     inkscape:pageopacity="0"
     inkscape:pageshadow="2"
     inkscape:window-width="1920"
     inkscape:window-height="1051"
     id="namedview16"
     showgrid="false"
     inkscape:zoom="2.9333333"
     inkscape:cx="100"
     inkscape:cy="150"
     inkscape:window-x="-9"
     inkscape:window-y="-9"
     inkscape:window-maximized="1"
     inkscape:current-layer="LogoTürkis" />
  <defs
     id="defs4">
    <style
       id="style2">.cls-1{fill:#2fac66;}</style>
  </defs>
  <g
     id="LogoTürkis">
    <path
       class="cls-1"
       d="M171,85c0-.9-.12-3.07-.32-5.17-.26-2.63-.66-5.16-.66-5.16l0,.78s.07,1.79.07,2.69A51.57,51.57,0,0,1,119.5,129.7a7.54,7.54,0,0,1-1,.12c-9.68.52-20.16,1.22-30.94,10.32-6.84,5.77-15.45,14.15-19,28.44-.41,1.65-.88,4.09-1.14,5.91a43.58,43.58,0,0,0-.46,4.91A34.12,34.12,0,0,1,76,172.87a40,40,0,0,1,6.84-2.27,24.21,24.21,0,0,1,5.41-.63c7.81-.22,14.61.57,31.55-6.3,11.81-4.78,28-15.43,38.25-31.74A87.85,87.85,0,0,0,166.71,114a88.84,88.84,0,0,0,3.45-14.28A71.64,71.64,0,0,0,171,85Z"
       id="path6"
       style="fill:#f0b399;fill-opacity:1" />
    <path
       class="cls-1"
       d="M82.87,181.4c-25.76,8.27-39.24,38.06-30.11,66.54,5.44,16.94,17.65,29.6,32.09,35.34A32.13,32.13,0,0,1,68.67,264.5c-5.66-17.63,7.82-37.72,26.81-43.81A20.63,20.63,0,0,0,82.87,181.4Z"
       id="path8"
       style="fill:#f0b399;fill-opacity:1" />
    <path
       class="cls-1"
       d="M57,161.08c.26-1.81.73-4.26,1.15-5.9,3.58-14.3,12.18-22.68,19-28.45A40,40,0,0,1,94.76,118a51.57,51.57,0,0,1,2-100.69l.83-.54c-23,2.19-39.37,15.56-49.36,27.82A83.76,83.76,0,0,0,35.62,65.43c-1.1,2.87-2.17,5.65-3,8.36A82.33,82.33,0,0,0,29.91,86c-2.86,19.37,1.42,33,1.42,33a89.9,89.9,0,0,0,2.6,8.81,81.34,81.34,0,0,0,23,34.15C57,161.64,57,161.37,57,161.08Z"
       id="path10"
       style="fill:#f0b399;fill-opacity:1" />
    <circle
       class="cls-1"
       cx="107.63"
       cy="90.34"
       r="20.63"
       id="circle12"
       style="fill:#f0b399;fill-opacity:1" />
  </g>
</svg>
