<?xml version="1.0" encoding="utf-8"?>
<!-- Generator: Adobe Illustrator 25.4.1, SVG Export Plug-In . SVG Version: 6.00 Build 0)  -->
<svg version="1.1" id="Abstraktes_Logo" xmlns="http://www.w3.org/2000/svg" xmlns:xlink="http://www.w3.org/1999/xlink" x="0px"
	 y="0px" viewBox="0 0 200 300" style="enable-background:new 0 0 200 300;" xml:space="preserve">
<style type="text/css">
	.st0{fill:#72C74B;}
</style>
<g id="LogoTürkis">
	<path class="st0" d="M173,85c0-0.9-0.1-3.1-0.3-5.2c-0.3-2.6-0.7-5.2-0.7-5.2v0.8c0,0,0.1,1.8,0.1,2.7c0,28.1-22.5,51-50.6,51.6
		c-0.3,0.1-0.7,0.1-1,0.1c-9.7,0.5-20.2,1.2-30.9,10.3c-6.8,5.8-15.4,14.1-19,28.4c-0.4,1.6-0.9,4.1-1.1,5.9
		c-0.2,1.6-0.4,3.3-0.5,4.9c2.6-2.7,5.7-4.9,9-6.5c2.2-1,4.5-1.7,6.8-2.3c1.8-0.4,3.6-0.6,5.4-0.6c7.8-0.2,14.6,0.6,31.6-6.3
		c11.8-4.8,28-15.4,38.2-31.7c3.6-5.6,6.5-11.6,8.7-17.9c1.5-4.7,2.7-9.4,3.4-14.3C172.9,94.8,173.2,89.9,173,85z"/>
	<path class="st0" d="M84.9,181.4c-25.8,8.3-39.2,38.1-30.1,66.5c5.4,16.9,17.7,29.6,32.1,35.3c-7.7-3.8-13.5-10.6-16.2-18.8
		c-5.7-17.6,7.8-37.7,26.8-43.8c10.8-3.5,16.8-15.1,13.3-25.9C107.3,183.9,95.7,177.9,84.9,181.4z"/>
	<path class="st0" d="M59,161.1c0.3-1.8,0.7-4.3,1.2-5.9c3.6-14.3,12.2-22.7,19-28.4c5.1-4.3,11.1-7.3,17.6-8.7
		c-27.7-6.7-44.7-34.6-38-62.3c4.7-19.5,20.3-34.5,40-38.4l0.8-0.5c-23,2.2-39.4,15.6-49.4,27.8c-5.2,6.3-9.4,13.3-12.6,20.8
		c-1.1,2.9-2.2,5.7-3,8.4c-1.2,4-2.1,8.1-2.7,12.2c-2.9,19.4,1.4,33,1.4,33c0.7,3,1.6,5.9,2.6,8.8c4.6,13.2,12.5,24.9,23,34.1
		C59,161.6,59,161.3,59,161.1z"/>
	<circle class="st0" cx="109.6" cy="90.3" r="20.6"/>
</g>
</svg>
